<?xml version="1.0" encoding="UTF-8" standalone="no"?>
<!DOCTYPE svg PUBLIC "-//W3C//DTD SVG 1.1//EN"
 "http://www.w3.org/Graphics/SVG/1.1/DTD/svg11.dtd">
<!-- Generated by graphviz version 2.40.1 (20161225.0304)
 -->
<!-- Title: %3 Pages: 1 -->
<svg width="662pt" height="780pt"
 viewBox="0.00 0.00 662.00 780.00" xmlns="http://www.w3.org/2000/svg" xmlns:xlink="http://www.w3.org/1999/xlink">
<g id="graph0" class="graph" transform="scale(1 1) rotate(0) translate(4 776)">
<title>%3</title>
<polygon fill="#ffffff" stroke="transparent" points="-4,4 -4,-776 658,-776 658,4 -4,4"/>
<g id="clust2" class="cluster">
<title>cluster[root] aws_instance.worker_var_</title>
</g>
<g id="clust3" class="cluster">
<title>cluster[root] aws_key_pair.auth_var_</title>
</g>
<g id="clust4" class="cluster">
<title>cluster[root] aws_subnet.main_var_</title>
</g>
<g id="clust5" class="cluster">
<title>cluster[root] aws_vpc.vpc_var_</title>
</g>
<g id="clust6" class="cluster">
<title>cluster[root] provider.aws_var_</title>
</g>
<g id="clust7" class="cluster">
<title>cluster[root] meta.count&#45;boundary (count boundary fixup)_output_[root] aws_eip.wip</title>
</g>
<!-- [root] aws_eip.wip -->
<g id="node_0" class="node">
<title>[root] aws_eip.wip</title>
<polygon fill="none" stroke="#000000" points="526,-538 526,-553 565,-553 565,-538 526,-538"/>
<text text-anchor="start" x="528.6973" y="-543.6" font-family="courier new" font-size="8.00" fill="#000000">aws_eip</text>
<polygon fill="none" stroke="#000000" points="526,-523 526,-538 565,-538 565,-523 526,-523"/>
<text text-anchor="start" x="538.2988" y="-528.6" font-family="courier new" font-size="8.00" fill="#000000">wip</text>
</g>
<!-- [root] aws_instance.worker -->
<g id="node_1" class="node">
<title>[root] aws_instance.worker</title>
<polygon fill="none" stroke="#000000" points="503,-466 503,-481 566,-481 566,-466 503,-466"/>
<text text-anchor="start" x="505.6953" y="-471.6" font-family="courier new" font-size="8.00" fill="#000000">aws_instance</text>
<polygon fill="none" stroke="#000000" points="503,-451 503,-466 566,-466 566,-451 503,-451"/>
<text text-anchor="start" x="520.0977" y="-456.6" font-family="courier new" font-size="8.00" fill="#000000">worker</text>
</g>
<!-- [root] aws_eip.wip&#45;&gt;[root] aws_instance.worker -->
<g id="edge_0" class="edge">
<title>[root] aws_eip.wip&#45;&gt;[root] aws_instance.worker</title>
<path fill="none" stroke="#000000" d="M542.2242,-519.8314C541.0478,-512.131 539.6489,-502.9743 538.3414,-494.4166"/>
<polygon fill="#000000" stroke="#000000" points="541.7833,-493.7699 536.8131,-484.4133 534.8636,-494.8272 541.7833,-493.7699"/>
</g>
<!-- [root] aws_key_pair.auth -->
<g id="node_3" class="node">
<title>[root] aws_key_pair.auth</title>
<polygon fill="none" stroke="#000000" points="503,-394 503,-409 566,-409 566,-394 503,-394"/>
<text text-anchor="start" x="505.6953" y="-399.6" font-family="courier new" font-size="8.00" fill="#000000">aws_key_pair</text>
<polygon fill="none" stroke="#000000" points="503,-379 503,-394 566,-394 566,-379 503,-379"/>
<text text-anchor="start" x="524.8984" y="-384.6" font-family="courier new" font-size="8.00" fill="#000000">auth</text>
</g>
<!-- [root] aws_instance.worker&#45;&gt;[root] aws_key_pair.auth -->
<g id="edge_1" class="edge">
<title>[root] aws_instance.worker&#45;&gt;[root] aws_key_pair.auth</title>
<path fill="none" stroke="#000000" d="M534,-447.8314C534,-440.131 534,-430.9743 534,-422.4166"/>
<polygon fill="#000000" stroke="#000000" points="537.5001,-422.4132 534,-412.4133 530.5001,-422.4133 537.5001,-422.4132"/>
</g>
<!-- [root] aws_security_group.sg -->
<g id="node_7" class="node">
<title>[root] aws_security_group.sg</title>
<polygon fill="none" stroke="#000000" points="200,-394 200,-409 292,-409 292,-394 200,-394"/>
<text text-anchor="start" x="202.793" y="-399.6" font-family="courier new" font-size="8.00" fill="#000000">aws_security_group</text>
<polygon fill="none" stroke="#000000" points="200,-379 200,-394 292,-394 292,-379 200,-379"/>
<text text-anchor="start" x="241.1992" y="-384.6" font-family="courier new" font-size="8.00" fill="#000000">sg</text>
</g>
<!-- [root] aws_instance.worker&#45;&gt;[root] aws_security_group.sg -->
<g id="edge_2" class="edge">
<title>[root] aws_instance.worker&#45;&gt;[root] aws_security_group.sg</title>
<path fill="none" stroke="#000000" d="M502.0794,-460.7021C447.37,-451.4547 338.0077,-432.1924 301,-420 297.4827,-418.8412 293.8972,-417.5121 290.3281,-416.0811"/>
<polygon fill="#000000" stroke="#000000" points="291.549,-412.797 280.9769,-412.1021 288.8082,-419.2381 291.549,-412.797"/>
</g>
<!-- [root] aws_subnet.main -->
<g id="node_10" class="node">
<title>[root] aws_subnet.main</title>
<polygon fill="none" stroke="#000000" points="430,-394 430,-409 484,-409 484,-394 430,-394"/>
<text text-anchor="start" x="432.9961" y="-399.6" font-family="courier new" font-size="8.00" fill="#000000">aws_subnet</text>
<polygon fill="none" stroke="#000000" points="430,-379 430,-394 484,-394 484,-379 430,-379"/>
<text text-anchor="start" x="447.3984" y="-384.6" font-family="courier new" font-size="8.00" fill="#000000">main</text>
</g>
<!-- [root] aws_instance.worker&#45;&gt;[root] aws_subnet.main -->
<g id="edge_3" class="edge">
<title>[root] aws_instance.worker&#45;&gt;[root] aws_subnet.main</title>
<path fill="none" stroke="#000000" d="M514.5696,-447.8314C505.268,-439.1337 493.9796,-428.5783 483.8714,-419.1265"/>
<polygon fill="#000000" stroke="#000000" points="486.1189,-416.4363 476.4241,-412.1628 481.3379,-421.5493 486.1189,-416.4363"/>
</g>
<!-- [root] var.images -->
<g id="node_13" class="node">
<title>[root] var.images</title>
<polygon fill="none" stroke="#000000" points="594,-394 594,-409 628,-409 628,-394 594,-394"/>
<text text-anchor="start" x="603.7988" y="-399.6" font-family="courier new" font-size="8.00" fill="#000000">var</text>
<polygon fill="none" stroke="#000000" points="594,-379 594,-394 628,-394 628,-379 594,-379"/>
<text text-anchor="start" x="596.5977" y="-384.6" font-family="courier new" font-size="8.00" fill="#000000">images</text>
</g>
<!-- [root] aws_instance.worker&#45;&gt;[root] var.images -->
<g id="edge_4" class="edge">
<title>[root] aws_instance.worker&#45;&gt;[root] var.images</title>
<path fill="none" stroke="#000000" d="M553.4304,-447.8314C562.732,-439.1337 574.0204,-428.5783 584.1286,-419.1265"/>
<polygon fill="#000000" stroke="#000000" points="586.6621,-421.5493 591.5759,-412.1628 581.8811,-416.4363 586.6621,-421.5493"/>
</g>
<!-- [root] aws_internet_gateway.gw -->
<g id="node_2" class="node">
<title>[root] aws_internet_gateway.gw</title>
<polygon fill="none" stroke="#000000" points="310,-394 310,-409 412,-409 412,-394 310,-394"/>
<text text-anchor="start" x="312.9922" y="-399.6" font-family="courier new" font-size="8.00" fill="#000000">aws_internet_gateway</text>
<polygon fill="none" stroke="#000000" points="310,-379 310,-394 412,-394 412,-379 310,-379"/>
<text text-anchor="start" x="356.1992" y="-384.6" font-family="courier new" font-size="8.00" fill="#000000">gw</text>
</g>
<!-- [root] aws_vpc.vpc -->
<g id="node_11" class="node">
<title>[root] aws_vpc.vpc</title>
<polygon fill="none" stroke="#000000" points="342,-322 342,-337 381,-337 381,-322 342,-322"/>
<text text-anchor="start" x="344.6973" y="-327.6" font-family="courier new" font-size="8.00" fill="#000000">aws_vpc</text>
<polygon fill="none" stroke="#000000" points="342,-307 342,-322 381,-322 381,-307 342,-307"/>
<text text-anchor="start" x="354.2988" y="-312.6" font-family="courier new" font-size="8.00" fill="#000000">vpc</text>
</g>
<!-- [root] aws_internet_gateway.gw&#45;&gt;[root] aws_vpc.vpc -->
<g id="edge_5" class="edge">
<title>[root] aws_internet_gateway.gw&#45;&gt;[root] aws_vpc.vpc</title>
<path fill="none" stroke="#000000" d="M361,-375.8314C361,-368.131 361,-358.9743 361,-350.4166"/>
<polygon fill="#000000" stroke="#000000" points="364.5001,-350.4132 361,-340.4133 357.5001,-350.4133 364.5001,-350.4132"/>
</g>
<!-- [root] provider.aws -->
<g id="node_12" class="node">
<title>[root] provider.aws</title>
<polygon fill="none" stroke="#000000" points="437,-250 437,-265 481,-265 481,-250 437,-250"/>
<text text-anchor="start" x="439.7969" y="-255.6" font-family="courier new" font-size="8.00" fill="#000000">provider</text>
<polygon fill="none" stroke="#000000" points="437,-235 437,-250 481,-250 481,-235 437,-235"/>
<text text-anchor="start" x="451.7988" y="-240.6" font-family="courier new" font-size="8.00" fill="#000000">aws</text>
</g>
<!-- [root] aws_key_pair.auth&#45;&gt;[root] provider.aws -->
<g id="edge_6" class="edge">
<title>[root] aws_key_pair.auth&#45;&gt;[root] provider.aws</title>
<path fill="none" stroke="#000000" d="M525.8692,-375.6663C516.8935,-355.7707 501.7543,-323.202 487,-296 483.5858,-289.7054 479.7081,-283.0596 475.95,-276.8363"/>
<polygon fill="#000000" stroke="#000000" points="478.8097,-274.8045 470.5972,-268.1107 472.843,-278.4648 478.8097,-274.8045"/>
</g>
<!-- [root] var.key_name -->
<g id="node_14" class="node">
<title>[root] var.key_name</title>
<polygon fill="none" stroke="#000000" points="541,-322 541,-337 585,-337 585,-322 541,-322"/>
<text text-anchor="start" x="555.7988" y="-327.6" font-family="courier new" font-size="8.00" fill="#000000">var</text>
<polygon fill="none" stroke="#000000" points="541,-307 541,-322 585,-322 585,-307 541,-307"/>
<text text-anchor="start" x="543.7969" y="-312.6" font-family="courier new" font-size="8.00" fill="#000000">key_name</text>
</g>
<!-- [root] aws_key_pair.auth&#45;&gt;[root] var.key_name -->
<g id="edge_7" class="edge">
<title>[root] aws_key_pair.auth&#45;&gt;[root] var.key_name</title>
<path fill="none" stroke="#000000" d="M541.3179,-375.8314C544.4876,-367.9617 548.27,-358.5712 551.7813,-349.8533"/>
<polygon fill="#000000" stroke="#000000" points="555.0939,-350.9968 555.5835,-340.4133 548.6008,-348.3815 555.0939,-350.9968"/>
</g>
<!-- [root] aws_network_acl.acl -->
<g id="node_4" class="node">
<title>[root] aws_network_acl.acl</title>
<polygon fill="none" stroke="#000000" points="0,-538 0,-553 78,-553 78,-538 0,-538"/>
<text text-anchor="start" x="2.9941" y="-543.6" font-family="courier new" font-size="8.00" fill="#000000">aws_network_acl</text>
<polygon fill="none" stroke="#000000" points="0,-523 0,-538 78,-538 78,-523 0,-523"/>
<text text-anchor="start" x="31.7988" y="-528.6" font-family="courier new" font-size="8.00" fill="#000000">acl</text>
</g>
<!-- [root] aws_network_acl.acl&#45;&gt;[root] aws_vpc.vpc -->
<g id="edge_9" class="edge">
<title>[root] aws_network_acl.acl&#45;&gt;[root] aws_vpc.vpc</title>
<path fill="none" stroke="#000000" d="M50.0972,-519.7415C72.3228,-484.7645 125.7998,-408.2218 191,-368 232.2105,-342.5774 287.4914,-331.0049 323.6632,-325.8756"/>
<polygon fill="#000000" stroke="#000000" points="324.3293,-329.318 333.7845,-324.5378 323.412,-322.3784 324.3293,-329.318"/>
</g>
<!-- [root] aws_route_table.public -->
<g id="node_5" class="node">
<title>[root] aws_route_table.public</title>
<polygon fill="none" stroke="#000000" points="329,-466 329,-481 407,-481 407,-466 329,-466"/>
<text text-anchor="start" x="331.9941" y="-471.6" font-family="courier new" font-size="8.00" fill="#000000">aws_route_table</text>
<polygon fill="none" stroke="#000000" points="329,-451 329,-466 407,-466 407,-451 329,-451"/>
<text text-anchor="start" x="353.5977" y="-456.6" font-family="courier new" font-size="8.00" fill="#000000">public</text>
</g>
<!-- [root] aws_route_table.public&#45;&gt;[root] aws_internet_gateway.gw -->
<g id="edge_10" class="edge">
<title>[root] aws_route_table.public&#45;&gt;[root] aws_internet_gateway.gw</title>
<path fill="none" stroke="#000000" d="M366.2336,-447.8314C365.485,-440.131 364.5947,-430.9743 363.7627,-422.4166"/>
<polygon fill="#000000" stroke="#000000" points="367.2415,-422.0276 362.7902,-412.4133 360.2744,-422.7051 367.2415,-422.0276"/>
</g>
<!-- [root] aws_route_table_association.public_routes -->
<g id="node_6" class="node">
<title>[root] aws_route_table_association.public_routes</title>
<polygon fill="none" stroke="#000000" points="365,-538 365,-553 500,-553 500,-538 365,-538"/>
<text text-anchor="start" x="367.6895" y="-543.6" font-family="courier new" font-size="8.00" fill="#000000">aws_route_table_association</text>
<polygon fill="none" stroke="#000000" points="365,-523 365,-538 500,-538 500,-523 365,-523"/>
<text text-anchor="start" x="401.2949" y="-528.6" font-family="courier new" font-size="8.00" fill="#000000">public_routes</text>
</g>
<!-- [root] aws_route_table_association.public_routes&#45;&gt;[root] aws_route_table.public -->
<g id="edge_11" class="edge">
<title>[root] aws_route_table_association.public_routes&#45;&gt;[root] aws_route_table.public</title>
<path fill="none" stroke="#000000" d="M415.8501,-519.8314C408.3283,-511.3694 399.2435,-501.1489 391.0196,-491.8971"/>
<polygon fill="#000000" stroke="#000000" points="393.627,-489.5621 384.3673,-484.4133 388.3951,-494.2127 393.627,-489.5621"/>
</g>
<!-- [root] aws_route_table_association.public_routes&#45;&gt;[root] aws_subnet.main -->
<g id="edge_12" class="edge">
<title>[root] aws_route_table_association.public_routes&#45;&gt;[root] aws_subnet.main</title>
<path fill="none" stroke="#000000" d="M435.1663,-519.7623C439.4492,-495.0928 447.1285,-450.8598 452.1436,-421.9731"/>
<polygon fill="#000000" stroke="#000000" points="455.5973,-422.541 453.8594,-412.0896 448.7004,-421.3435 455.5973,-422.541"/>
</g>
<!-- [root] aws_security_group.sg&#45;&gt;[root] aws_vpc.vpc -->
<g id="edge_13" class="edge">
<title>[root] aws_security_group.sg&#45;&gt;[root] aws_vpc.vpc</title>
<path fill="none" stroke="#000000" d="M275.0194,-375.8314C290.29,-366.2706 309.1461,-354.4651 325.3051,-344.3481"/>
<polygon fill="#000000" stroke="#000000" points="327.3464,-347.1995 333.9649,-338.9263 323.6318,-341.2664 327.3464,-347.1995"/>
</g>
<!-- [root] aws_security_group_rule.egress -->
<g id="node_8" class="node">
<title>[root] aws_security_group_rule.egress</title>
<polygon fill="none" stroke="#000000" points="230,-538 230,-553 346,-553 346,-538 230,-538"/>
<text text-anchor="start" x="232.791" y="-543.6" font-family="courier new" font-size="8.00" fill="#000000">aws_security_group_rule</text>
<polygon fill="none" stroke="#000000" points="230,-523 230,-538 346,-538 346,-523 230,-523"/>
<text text-anchor="start" x="273.5977" y="-528.6" font-family="courier new" font-size="8.00" fill="#000000">egress</text>
</g>
<!-- [root] aws_security_group_rule.egress&#45;&gt;[root] aws_security_group.sg -->
<g id="edge_14" class="edge">
<title>[root] aws_security_group_rule.egress&#45;&gt;[root] aws_security_group.sg</title>
<path fill="none" stroke="#000000" d="M282.6807,-519.7623C275.4854,-495.0928 262.5841,-450.8598 254.1588,-421.9731"/>
<polygon fill="#000000" stroke="#000000" points="257.4362,-420.7096 251.2761,-412.0896 250.7162,-422.6696 257.4362,-420.7096"/>
</g>
<!-- [root] aws_security_group_rule.ssh&#45;ingress -->
<g id="node_9" class="node">
<title>[root] aws_security_group_rule.ssh&#45;ingress</title>
<polygon fill="none" stroke="#000000" points="96,-538 96,-553 212,-553 212,-538 96,-538"/>
<text text-anchor="start" x="98.791" y="-543.6" font-family="courier new" font-size="8.00" fill="#000000">aws_security_group_rule</text>
<polygon fill="none" stroke="#000000" points="96,-523 96,-538 212,-538 212,-523 96,-523"/>
<text text-anchor="start" x="127.5957" y="-528.6" font-family="courier new" font-size="8.00" fill="#000000">ssh&#45;ingress</text>
</g>
<!-- [root] aws_security_group_rule.ssh&#45;ingress&#45;&gt;[root] aws_security_group.sg -->
<g id="edge_15" class="edge">
<title>[root] aws_security_group_rule.ssh&#45;ingress&#45;&gt;[root] aws_security_group.sg</title>
<path fill="none" stroke="#000000" d="M165.6519,-519.7623C181.6203,-494.7682 210.4188,-449.6924 228.8517,-420.8409"/>
<polygon fill="#000000" stroke="#000000" points="232.0082,-422.401 234.4427,-412.0896 226.1094,-418.6322 232.0082,-422.401"/>
</g>
<!-- [root] aws_subnet.main&#45;&gt;[root] aws_vpc.vpc -->
<g id="edge_16" class="edge">
<title>[root] aws_subnet.main&#45;&gt;[root] aws_vpc.vpc</title>
<path fill="none" stroke="#000000" d="M432.7751,-375.8314C420.8372,-366.8779 406.2744,-355.9558 393.394,-346.2955"/>
<polygon fill="#000000" stroke="#000000" points="395.3171,-343.3629 385.2171,-340.1628 391.1171,-348.9629 395.3171,-343.3629"/>
</g>
<!-- [root] var.subnet_cidr -->
<g id="node_16" class="node">
<title>[root] var.subnet_cidr</title>
<polygon fill="none" stroke="#000000" points="417,-322 417,-337 475,-337 475,-322 417,-322"/>
<text text-anchor="start" x="438.7988" y="-327.6" font-family="courier new" font-size="8.00" fill="#000000">var</text>
<polygon fill="none" stroke="#000000" points="417,-307 417,-322 475,-322 475,-307 417,-307"/>
<text text-anchor="start" x="419.5957" y="-312.6" font-family="courier new" font-size="8.00" fill="#000000">subnet_cidr</text>
</g>
<!-- [root] aws_subnet.main&#45;&gt;[root] var.subnet_cidr -->
<g id="edge_17" class="edge">
<title>[root] aws_subnet.main&#45;&gt;[root] var.subnet_cidr</title>
<path fill="none" stroke="#000000" d="M454.2242,-375.8314C453.0478,-368.131 451.6489,-358.9743 450.3414,-350.4166"/>
<polygon fill="#000000" stroke="#000000" points="453.7833,-349.7699 448.8131,-340.4133 446.8636,-350.8272 453.7833,-349.7699"/>
</g>
<!-- [root] aws_vpc.vpc&#45;&gt;[root] provider.aws -->
<g id="edge_18" class="edge">
<title>[root] aws_vpc.vpc&#45;&gt;[root] provider.aws</title>
<path fill="none" stroke="#000000" d="M385.7295,-303.8314C397.9162,-294.8779 412.7823,-283.9558 425.9312,-274.2955"/>
<polygon fill="#000000" stroke="#000000" points="428.2918,-276.9042 434.2784,-268.1628 424.1473,-271.263 428.2918,-276.9042"/>
</g>
<!-- [root] var.vpc_cidr -->
<g id="node_17" class="node">
<title>[root] var.vpc_cidr</title>
<polygon fill="none" stroke="#000000" points="339,-250 339,-265 383,-265 383,-250 339,-250"/>
<text text-anchor="start" x="353.7988" y="-255.6" font-family="courier new" font-size="8.00" fill="#000000">var</text>
<polygon fill="none" stroke="#000000" points="339,-235 339,-250 383,-250 383,-235 339,-235"/>
<text text-anchor="start" x="341.7969" y="-240.6" font-family="courier new" font-size="8.00" fill="#000000">vpc_cidr</text>
</g>
<!-- [root] aws_vpc.vpc&#45;&gt;[root] var.vpc_cidr -->
<g id="edge_19" class="edge">
<title>[root] aws_vpc.vpc&#45;&gt;[root] var.vpc_cidr</title>
<path fill="none" stroke="#000000" d="M361,-303.8314C361,-296.131 361,-286.9743 361,-278.4166"/>
<polygon fill="#000000" stroke="#000000" points="364.5001,-278.4132 361,-268.4133 357.5001,-278.4133 364.5001,-278.4132"/>
</g>
<!-- [root] var.aws_access_key -->
<g id="node_21" class="node">
<title>[root] var.aws_access_key</title>
<polygon fill="none" stroke="#000000" points="423,-178 423,-193 496,-193 496,-178 423,-178"/>
<text text-anchor="start" x="452.2988" y="-183.6" font-family="courier new" font-size="8.00" fill="#000000">var</text>
<polygon fill="none" stroke="#000000" points="423,-163 423,-178 496,-178 496,-163 423,-163"/>
<text text-anchor="start" x="425.8945" y="-168.6" font-family="courier new" font-size="8.00" fill="#000000">aws_access_key</text>
</g>
<!-- [root] provider.aws&#45;&gt;[root] var.aws_access_key -->
<g id="edge_31" class="edge">
<title>[root] provider.aws&#45;&gt;[root] var.aws_access_key</title>
<path fill="none" stroke="#000000" d="M459,-231.8314C459,-224.131 459,-214.9743 459,-206.4166"/>
<polygon fill="#000000" stroke="#000000" points="462.5001,-206.4132 459,-196.4133 455.5001,-206.4133 462.5001,-206.4132"/>
</g>
<!-- [root] meta.count&#45;boundary (count boundary fixup) -->
<g id="node_18" class="node">
<title>[root] meta.count&#45;boundary (count boundary fixup)</title>
<polygon fill="none" stroke="#000000" points="211,-682 211,-697 284,-697 284,-682 211,-682"/>
<text text-anchor="start" x="237.8984" y="-687.6" font-family="courier new" font-size="8.00" fill="#000000">meta</text>
<polygon fill="none" stroke="#000000" points="211,-667 211,-682 284,-682 284,-667 211,-667"/>
<text text-anchor="start" x="213.8945" y="-672.6" font-family="courier new" font-size="8.00" fill="#000000">count&#45;boundary</text>
</g>
<!-- [root] meta.count&#45;boundary (count boundary fixup)&#45;&gt;[root] aws_network_acl.acl -->
<g id="edge_20" class="edge">
<title>[root] meta.count&#45;boundary (count boundary fixup)&#45;&gt;[root] aws_network_acl.acl</title>
<path fill="none" stroke="#000000" d="M220.6567,-663.7623C183.3038,-637.9026 114.9,-590.5461 73.5268,-561.9032"/>
<polygon fill="#000000" stroke="#000000" points="75.3436,-558.9041 65.1294,-556.0896 71.3591,-564.6594 75.3436,-558.9041"/>
</g>
<!-- [root] meta.count&#45;boundary (count boundary fixup)&#45;&gt;[root] aws_route_table_association.public_routes -->
<g id="edge_21" class="edge">
<title>[root] meta.count&#45;boundary (count boundary fixup)&#45;&gt;[root] aws_route_table_association.public_routes</title>
<path fill="none" stroke="#000000" d="M283.8155,-669.1575C303.3736,-661.3189 327.1887,-650.0863 346,-636 372.9133,-615.8468 397.5475,-586.0883 413.4869,-564.6553"/>
<polygon fill="#000000" stroke="#000000" points="416.5023,-566.4604 419.5633,-556.3174 410.8451,-562.3377 416.5023,-566.4604"/>
</g>
<!-- [root] meta.count&#45;boundary (count boundary fixup)&#45;&gt;[root] aws_security_group_rule.egress -->
<g id="edge_22" class="edge">
<title>[root] meta.count&#45;boundary (count boundary fixup)&#45;&gt;[root] aws_security_group_rule.egress</title>
<path fill="none" stroke="#000000" d="M251.8328,-663.8972C257.1276,-644.1991 265.9421,-611.7981 274,-584 275.6973,-578.1446 277.5656,-571.8863 279.3692,-565.9316"/>
<polygon fill="#000000" stroke="#000000" points="282.7306,-566.9078 282.3017,-556.3217 276.0354,-564.8647 282.7306,-566.9078"/>
</g>
<!-- [root] meta.count&#45;boundary (count boundary fixup)&#45;&gt;[root] aws_security_group_rule.ssh&#45;ingress -->
<g id="edge_23" class="edge">
<title>[root] meta.count&#45;boundary (count boundary fixup)&#45;&gt;[root] aws_security_group_rule.ssh&#45;ingress</title>
<path fill="none" stroke="#000000" d="M235.2215,-663.7623C219.0795,-638.7682 189.968,-593.6924 171.3347,-564.8409"/>
<polygon fill="#000000" stroke="#000000" points="174.0483,-562.5912 165.6829,-556.0896 168.168,-566.3889 174.0483,-562.5912"/>
</g>
<!-- [root] output.wip -->
<g id="node_19" class="node">
<title>[root] output.wip</title>
<polygon fill="none" stroke="#000000" points="498,-610 498,-625 532,-625 532,-610 498,-610"/>
<text text-anchor="start" x="500.5977" y="-615.6" font-family="courier new" font-size="8.00" fill="#000000">output</text>
<polygon fill="none" stroke="#000000" points="498,-595 498,-610 532,-610 532,-595 498,-595"/>
<text text-anchor="start" x="507.7988" y="-600.6" font-family="courier new" font-size="8.00" fill="#000000">wip</text>
</g>
<!-- [root] meta.count&#45;boundary (count boundary fixup)&#45;&gt;[root] output.wip -->
<g id="edge_24" class="edge">
<title>[root] meta.count&#45;boundary (count boundary fixup)&#45;&gt;[root] output.wip</title>
<path fill="none" stroke="#000000" d="M283.7991,-672.6079C319.4455,-663.4567 375.0018,-649.0535 423,-636 441.0381,-631.0944 461.0113,-625.4729 477.7256,-620.7149"/>
<polygon fill="#000000" stroke="#000000" points="479.0097,-623.9882 487.6651,-617.878 477.0884,-617.257 479.0097,-623.9882"/>
</g>
<!-- [root] provider.aws (close) -->
<g id="node_20" class="node">
<title>[root] provider.aws (close)</title>
<polygon fill="none" stroke="#000000" points="288,-610 288,-625 332,-625 332,-610 288,-610"/>
<text text-anchor="start" x="290.7969" y="-615.6" font-family="courier new" font-size="8.00" fill="#000000">provider</text>
<polygon fill="none" stroke="#000000" points="288,-595 288,-610 332,-610 332,-595 288,-595"/>
<text text-anchor="start" x="302.7988" y="-600.6" font-family="courier new" font-size="8.00" fill="#000000">aws</text>
</g>
<!-- [root] provider.aws (close)&#45;&gt;[root] aws_eip.wip -->
<g id="edge_26" class="edge">
<title>[root] provider.aws (close)&#45;&gt;[root] aws_eip.wip</title>
<path fill="none" stroke="#000000" d="M337.2557,-604.4093C374.2795,-596.4312 442.5079,-580.3674 508.0835,-555.9906"/>
<polygon fill="#000000" stroke="#000000" points="509.6241,-559.1498 517.7353,-552.3337 507.1439,-552.6039 509.6241,-559.1498"/>
</g>
<!-- [root] provider.aws (close)&#45;&gt;[root] aws_network_acl.acl -->
<g id="edge_27" class="edge">
<title>[root] provider.aws (close)&#45;&gt;[root] aws_network_acl.acl</title>
<path fill="none" stroke="#000000" d="M282.9403,-604.5554C242.4255,-596.1663 163.5014,-578.9078 87.8455,-556.0849"/>
<polygon fill="#000000" stroke="#000000" points="88.7456,-552.7003 78.1593,-553.1263 86.7006,-559.395 88.7456,-552.7003"/>
</g>
<!-- [root] provider.aws (close)&#45;&gt;[root] aws_route_table_association.public_routes -->
<g id="edge_28" class="edge">
<title>[root] provider.aws (close)&#45;&gt;[root] aws_route_table_association.public_routes</title>
<path fill="none" stroke="#000000" d="M337.0758,-594.0209C353.3643,-584.408 374.3846,-572.0025 392.5027,-561.3099"/>
<polygon fill="#000000" stroke="#000000" points="394.2973,-564.3149 401.1305,-556.2181 390.7395,-558.2864 394.2973,-564.3149"/>
</g>
<!-- [root] provider.aws (close)&#45;&gt;[root] aws_security_group_rule.egress -->
<g id="edge_29" class="edge">
<title>[root] provider.aws (close)&#45;&gt;[root] aws_security_group_rule.egress</title>
<path fill="none" stroke="#000000" d="M304.4485,-591.8314C302.0697,-584.0463 299.2362,-574.7729 296.5967,-566.1347"/>
<polygon fill="#000000" stroke="#000000" points="299.8958,-564.954 293.6263,-556.4133 293.2013,-566.9996 299.8958,-564.954"/>
</g>
<!-- [root] provider.aws (close)&#45;&gt;[root] aws_security_group_rule.ssh&#45;ingress -->
<g id="edge_30" class="edge">
<title>[root] provider.aws (close)&#45;&gt;[root] aws_security_group_rule.ssh&#45;ingress</title>
<path fill="none" stroke="#000000" d="M282.8269,-597.4586C260.6499,-587.223 228.7635,-572.5062 202.263,-560.2753"/>
<polygon fill="#000000" stroke="#000000" points="203.6852,-557.0769 193.1389,-556.0641 200.7518,-563.4326 203.6852,-557.0769"/>
</g>
<!-- [root] root -->
<g id="node_24" class="node">
<title>[root] root</title>
<polygon fill="none" stroke="#000000" points="313.3089,-772 244.6911,-772 244.6911,-736 313.3089,-736 313.3089,-772"/>
<text text-anchor="middle" x="279" y="-752.1313" font-family="courier new" font-size="8.00" fill="#000000">[root] root</text>
</g>
<!-- [root] root&#45;&gt;[root] meta.count&#45;boundary (count boundary fixup) -->
<g id="edge_34" class="edge">
<title>[root] root&#45;&gt;[root] meta.count&#45;boundary (count boundary fixup)</title>
<path fill="none" stroke="#000000" d="M270.925,-735.8314C267.3898,-727.8771 263.164,-718.369 259.2544,-709.5723"/>
<polygon fill="#000000" stroke="#000000" points="262.4435,-708.1299 255.1837,-700.4133 256.0468,-710.9729 262.4435,-708.1299"/>
</g>
<!-- [root] root&#45;&gt;[root] provider.aws (close) -->
<g id="edge_35" class="edge">
<title>[root] root&#45;&gt;[root] provider.aws (close)</title>
<path fill="none" stroke="#000000" d="M284.1022,-735.5798C286.9016,-725.1759 290.3348,-711.9084 293,-700 297.6234,-679.3425 302.0354,-655.8317 305.2056,-638.0215"/>
<polygon fill="#000000" stroke="#000000" points="308.6826,-638.457 306.9653,-628.0023 301.7882,-637.2461 308.6826,-638.457"/>
</g>
<!-- [root] var.public_key_path -->
<g id="node_15" class="node">
<title>[root] var.public_key_path</title>
<polygon fill="none" stroke="#000000" points="529,-250 529,-265 607,-265 607,-250 529,-250"/>
<text text-anchor="start" x="560.7988" y="-255.6" font-family="courier new" font-size="8.00" fill="#000000">var</text>
<polygon fill="none" stroke="#000000" points="529,-235 529,-250 607,-250 607,-235 529,-235"/>
<text text-anchor="start" x="531.9941" y="-240.6" font-family="courier new" font-size="8.00" fill="#000000">public_key_path</text>
</g>
<!-- [root] var.key_name&#45;&gt;[root] var.public_key_path -->
<g id="edge_36" class="edge">
<title>[root] var.key_name&#45;&gt;[root] var.public_key_path</title>
<path fill="none" stroke="#000000" stroke-dasharray="5,2" d="M564.2617,-303.8314C565.0139,-293 565.9661,-279.2876 566.7213,-268.4133"/>
</g>
<!-- [root] var.aws_region -->
<g id="node_22" class="node">
<title>[root] var.aws_region</title>
<polygon fill="none" stroke="#000000" points="432,-106 432,-121 486,-121 486,-106 432,-106"/>
<text text-anchor="start" x="451.7988" y="-111.6" font-family="courier new" font-size="8.00" fill="#000000">var</text>
<polygon fill="none" stroke="#000000" points="432,-91 432,-106 486,-106 486,-91 432,-91"/>
<text text-anchor="start" x="434.9961" y="-96.6" font-family="courier new" font-size="8.00" fill="#000000">aws_region</text>
</g>
<!-- [root] var.aws_access_key&#45;&gt;[root] var.aws_region -->
<g id="edge_37" class="edge">
<title>[root] var.aws_access_key&#45;&gt;[root] var.aws_region</title>
<path fill="none" stroke="#000000" stroke-dasharray="5,2" d="M459,-159.8314C459,-149 459,-135.2876 459,-124.4133"/>
</g>
<!-- [root] var.aws_secret_key -->
<g id="node_23" class="node">
<title>[root] var.aws_secret_key</title>
<polygon fill="none" stroke="#000000" points="423,-34 423,-49 496,-49 496,-34 423,-34"/>
<text text-anchor="start" x="452.2988" y="-39.6" font-family="courier new" font-size="8.00" fill="#000000">var</text>
<polygon fill="none" stroke="#000000" points="423,-19 423,-34 496,-34 496,-19 423,-19"/>
<text text-anchor="start" x="425.8945" y="-24.6" font-family="courier new" font-size="8.00" fill="#000000">aws_secret_key</text>
</g>
<!-- [root] var.aws_region&#45;&gt;[root] var.aws_secret_key -->
<g id="edge_38" class="edge">
<title>[root] var.aws_region&#45;&gt;[root] var.aws_secret_key</title>
<path fill="none" stroke="#000000" stroke-dasharray="5,2" d="M459,-87.8314C459,-77 459,-63.2876 459,-52.4133"/>
</g>
<!-- [root] output.wip&#45;&gt;[root] aws_eip.wip -->
<g id="edge_25" class="edge">
<title>[root] output.wip&#45;&gt;[root] aws_eip.wip</title>
<path fill="none" stroke="#000000" d="M522.5703,-591.8314C525.8493,-583.9617 529.762,-574.5712 533.3945,-565.8533"/>
<polygon fill="#000000" stroke="#000000" points="536.7124,-566.9902 537.3278,-556.4133 530.2508,-564.2979 536.7124,-566.9902"/>
</g>
</g>
</svg>
