<?xml version="1.0" encoding="UTF-8" standalone="no"?>
<!DOCTYPE svg PUBLIC "-//W3C//DTD SVG 1.1//EN"
 "http://www.w3.org/Graphics/SVG/1.1/DTD/svg11.dtd">
<!-- Generated by graphviz version 2.40.1 (20161225.0304)
 -->
<!-- Title: %3 Pages: 1 -->
<svg width="580pt" height="548pt"
 viewBox="0.00 0.00 580.00 548.00" xmlns="http://www.w3.org/2000/svg" xmlns:xlink="http://www.w3.org/1999/xlink">
<g id="graph0" class="graph" transform="scale(1 1) rotate(0) translate(4 544)">
<title>%3</title>
<polygon fill="#ffffff" stroke="transparent" points="-4,4 -4,-544 576,-544 576,4 -4,4"/>
<g id="clust2" class="cluster">
<title>cluster[root] meta.count&#45;boundary (count boundary fixup)_output_[root] aws_eip.wip</title>
</g>
<!-- [root] aws_eip.wip -->
<g id="node_0" class="node">
<title>[root] aws_eip.wip</title>
<polygon fill="none" stroke="#000000" points="142,-306 142,-321 181,-321 181,-306 142,-306"/>
<text text-anchor="start" x="144.6973" y="-311.6" font-family="courier new" font-size="8.00" fill="#000000">aws_eip</text>
<polygon fill="none" stroke="#000000" points="142,-291 142,-306 181,-306 181,-291 142,-291"/>
<text text-anchor="start" x="154.2988" y="-296.6" font-family="courier new" font-size="8.00" fill="#000000">wip</text>
</g>
<!-- [root] aws_instance.worker -->
<g id="node_1" class="node">
<title>[root] aws_instance.worker</title>
<polygon fill="none" stroke="#000000" points="137,-234 137,-249 200,-249 200,-234 137,-234"/>
<text text-anchor="start" x="139.6953" y="-239.6" font-family="courier new" font-size="8.00" fill="#000000">aws_instance</text>
<polygon fill="none" stroke="#000000" points="137,-219 137,-234 200,-234 200,-219 137,-219"/>
<text text-anchor="start" x="154.0977" y="-224.6" font-family="courier new" font-size="8.00" fill="#000000">worker</text>
</g>
<!-- [root] aws_eip.wip&#45;&gt;[root] aws_instance.worker -->
<g id="edge_0" class="edge">
<title>[root] aws_eip.wip&#45;&gt;[root] aws_instance.worker</title>
<path fill="none" stroke="#000000" d="M162.7664,-287.8314C163.515,-280.131 164.4053,-270.9743 165.2373,-262.4166"/>
<polygon fill="#000000" stroke="#000000" points="168.7256,-262.7051 166.2098,-252.4133 161.7585,-262.0276 168.7256,-262.7051"/>
</g>
<!-- [root] aws_key_pair.auth -->
<g id="node_3" class="node">
<title>[root] aws_key_pair.auth</title>
<polygon fill="none" stroke="#000000" points="110,-162 110,-177 173,-177 173,-162 110,-162"/>
<text text-anchor="start" x="112.6953" y="-167.6" font-family="courier new" font-size="8.00" fill="#000000">aws_key_pair</text>
<polygon fill="none" stroke="#000000" points="110,-147 110,-162 173,-162 173,-147 110,-147"/>
<text text-anchor="start" x="131.8984" y="-152.6" font-family="courier new" font-size="8.00" fill="#000000">auth</text>
</g>
<!-- [root] aws_instance.worker&#45;&gt;[root] aws_key_pair.auth -->
<g id="edge_1" class="edge">
<title>[root] aws_instance.worker&#45;&gt;[root] aws_key_pair.auth</title>
<path fill="none" stroke="#000000" d="M161.1868,-215.8314C158.2356,-207.9617 154.7142,-198.5712 151.445,-189.8533"/>
<polygon fill="#000000" stroke="#000000" points="154.6934,-188.5476 147.905,-180.4133 148.1391,-191.0055 154.6934,-188.5476"/>
</g>
<!-- [root] aws_security_group.sg -->
<g id="node_7" class="node">
<title>[root] aws_security_group.sg</title>
<polygon fill="none" stroke="#000000" points="191,-162 191,-177 283,-177 283,-162 191,-162"/>
<text text-anchor="start" x="193.793" y="-167.6" font-family="courier new" font-size="8.00" fill="#000000">aws_security_group</text>
<polygon fill="none" stroke="#000000" points="191,-147 191,-162 283,-162 283,-147 191,-147"/>
<text text-anchor="start" x="232.1992" y="-152.6" font-family="courier new" font-size="8.00" fill="#000000">sg</text>
</g>
<!-- [root] aws_instance.worker&#45;&gt;[root] aws_security_group.sg -->
<g id="edge_2" class="edge">
<title>[root] aws_instance.worker&#45;&gt;[root] aws_security_group.sg</title>
<path fill="none" stroke="#000000" d="M185.4116,-215.8314C193.521,-207.3694 203.3156,-197.1489 212.182,-187.8971"/>
<polygon fill="#000000" stroke="#000000" points="214.9618,-190.0549 219.354,-180.4133 209.9079,-185.2115 214.9618,-190.0549"/>
</g>
<!-- [root] aws_subnet.main -->
<g id="node_10" class="node">
<title>[root] aws_subnet.main</title>
<polygon fill="none" stroke="#000000" points="301,-162 301,-177 355,-177 355,-162 301,-162"/>
<text text-anchor="start" x="303.9961" y="-167.6" font-family="courier new" font-size="8.00" fill="#000000">aws_subnet</text>
<polygon fill="none" stroke="#000000" points="301,-147 301,-162 355,-162 355,-147 301,-147"/>
<text text-anchor="start" x="318.3984" y="-152.6" font-family="courier new" font-size="8.00" fill="#000000">main</text>
</g>
<!-- [root] aws_instance.worker&#45;&gt;[root] aws_subnet.main -->
<g id="edge_3" class="edge">
<title>[root] aws_instance.worker&#45;&gt;[root] aws_subnet.main</title>
<path fill="none" stroke="#000000" d="M199.5474,-220.8066C222.7644,-210.9766 255.2616,-196.9684 291.6235,-180.0745"/>
<polygon fill="#000000" stroke="#000000" points="293.3695,-183.1219 300.948,-175.718 290.4065,-176.7799 293.3695,-183.1219"/>
</g>
<!-- [root] aws_internet_gateway.gw -->
<g id="node_2" class="node">
<title>[root] aws_internet_gateway.gw</title>
<polygon fill="none" stroke="#000000" points="373,-162 373,-177 475,-177 475,-162 373,-162"/>
<text text-anchor="start" x="375.9922" y="-167.6" font-family="courier new" font-size="8.00" fill="#000000">aws_internet_gateway</text>
<polygon fill="none" stroke="#000000" points="373,-147 373,-162 475,-162 475,-147 373,-147"/>
<text text-anchor="start" x="419.1992" y="-152.6" font-family="courier new" font-size="8.00" fill="#000000">gw</text>
</g>
<!-- [root] aws_vpc.vpc -->
<g id="node_11" class="node">
<title>[root] aws_vpc.vpc</title>
<polygon fill="none" stroke="#000000" points="309,-90 309,-105 348,-105 348,-90 309,-90"/>
<text text-anchor="start" x="311.6973" y="-95.6" font-family="courier new" font-size="8.00" fill="#000000">aws_vpc</text>
<polygon fill="none" stroke="#000000" points="309,-75 309,-90 348,-90 348,-75 309,-75"/>
<text text-anchor="start" x="321.2988" y="-80.6" font-family="courier new" font-size="8.00" fill="#000000">vpc</text>
</g>
<!-- [root] aws_internet_gateway.gw&#45;&gt;[root] aws_vpc.vpc -->
<g id="edge_4" class="edge">
<title>[root] aws_internet_gateway.gw&#45;&gt;[root] aws_vpc.vpc</title>
<path fill="none" stroke="#000000" d="M399.7751,-143.8314C387.8372,-134.8779 373.2744,-123.9558 360.394,-114.2955"/>
<polygon fill="#000000" stroke="#000000" points="362.3171,-111.3629 352.2171,-108.1628 358.1171,-116.9629 362.3171,-111.3629"/>
</g>
<!-- [root] provider.aws -->
<g id="node_12" class="node">
<title>[root] provider.aws</title>
<polygon fill="none" stroke="#000000" points="212,-18 212,-33 256,-33 256,-18 212,-18"/>
<text text-anchor="start" x="214.7969" y="-23.6" font-family="courier new" font-size="8.00" fill="#000000">provider</text>
<polygon fill="none" stroke="#000000" points="212,-3 212,-18 256,-18 256,-3 212,-3"/>
<text text-anchor="start" x="226.7988" y="-8.6" font-family="courier new" font-size="8.00" fill="#000000">aws</text>
</g>
<!-- [root] aws_key_pair.auth&#45;&gt;[root] provider.aws -->
<g id="edge_5" class="edge">
<title>[root] aws_key_pair.auth&#45;&gt;[root] provider.aws</title>
<path fill="none" stroke="#000000" d="M152.7785,-143.7623C168.9205,-118.7682 198.032,-73.6924 216.6653,-44.8409"/>
<polygon fill="#000000" stroke="#000000" points="219.832,-46.3889 222.3171,-36.0896 213.9517,-42.5912 219.832,-46.3889"/>
</g>
<!-- [root] aws_network_acl.acl -->
<g id="node_4" class="node">
<title>[root] aws_network_acl.acl</title>
<polygon fill="none" stroke="#000000" points="494,-306 494,-321 572,-321 572,-306 494,-306"/>
<text text-anchor="start" x="496.9941" y="-311.6" font-family="courier new" font-size="8.00" fill="#000000">aws_network_acl</text>
<polygon fill="none" stroke="#000000" points="494,-291 494,-306 572,-306 572,-291 494,-291"/>
<text text-anchor="start" x="525.7988" y="-296.6" font-family="courier new" font-size="8.00" fill="#000000">acl</text>
</g>
<!-- [root] aws_network_acl.acl&#45;&gt;[root] aws_vpc.vpc -->
<g id="edge_6" class="edge">
<title>[root] aws_network_acl.acl&#45;&gt;[root] aws_vpc.vpc</title>
<path fill="none" stroke="#000000" d="M532.6493,-287.7972C531.0262,-254.7248 522.8925,-184.4609 484,-144 452.6812,-111.4183 400.7564,-98.4867 365.4935,-93.3595"/>
<polygon fill="#000000" stroke="#000000" points="365.4951,-89.8301 355.1261,-92.0058 364.5887,-96.7712 365.4951,-89.8301"/>
</g>
<!-- [root] aws_route_table.public -->
<g id="node_5" class="node">
<title>[root] aws_route_table.public</title>
<polygon fill="none" stroke="#000000" points="379,-234 379,-249 457,-249 457,-234 379,-234"/>
<text text-anchor="start" x="381.9941" y="-239.6" font-family="courier new" font-size="8.00" fill="#000000">aws_route_table</text>
<polygon fill="none" stroke="#000000" points="379,-219 379,-234 457,-234 457,-219 379,-219"/>
<text text-anchor="start" x="403.5977" y="-224.6" font-family="courier new" font-size="8.00" fill="#000000">public</text>
</g>
<!-- [root] aws_route_table.public&#45;&gt;[root] aws_internet_gateway.gw -->
<g id="edge_7" class="edge">
<title>[root] aws_route_table.public&#45;&gt;[root] aws_internet_gateway.gw</title>
<path fill="none" stroke="#000000" d="M419.5141,-215.8314C420.1558,-208.131 420.9188,-198.9743 421.6319,-190.4166"/>
<polygon fill="#000000" stroke="#000000" points="425.1229,-190.6694 422.4656,-180.4133 418.1471,-190.088 425.1229,-190.6694"/>
</g>
<!-- [root] aws_route_table_association.public_routes -->
<g id="node_6" class="node">
<title>[root] aws_route_table_association.public_routes</title>
<polygon fill="none" stroke="#000000" points="341,-306 341,-321 476,-321 476,-306 341,-306"/>
<text text-anchor="start" x="343.6895" y="-311.6" font-family="courier new" font-size="8.00" fill="#000000">aws_route_table_association</text>
<polygon fill="none" stroke="#000000" points="341,-291 341,-306 476,-306 476,-291 341,-291"/>
<text text-anchor="start" x="377.2949" y="-296.6" font-family="courier new" font-size="8.00" fill="#000000">public_routes</text>
</g>
<!-- [root] aws_route_table_association.public_routes&#45;&gt;[root] aws_route_table.public -->
<g id="edge_8" class="edge">
<title>[root] aws_route_table_association.public_routes&#45;&gt;[root] aws_route_table.public</title>
<path fill="none" stroke="#000000" d="M410.5234,-287.8314C411.5929,-280.131 412.8647,-270.9743 414.0532,-262.4166"/>
<polygon fill="#000000" stroke="#000000" points="417.5336,-262.7997 415.4426,-252.4133 410.6001,-261.8367 417.5336,-262.7997"/>
</g>
<!-- [root] aws_route_table_association.public_routes&#45;&gt;[root] aws_subnet.main -->
<g id="edge_9" class="edge">
<title>[root] aws_route_table_association.public_routes&#45;&gt;[root] aws_subnet.main</title>
<path fill="none" stroke="#000000" d="M393.7915,-287.5462C386.2618,-277.3549 377.1237,-264.301 370,-252 358.2617,-231.7305 347.1548,-207.6305 339.3143,-189.4728"/>
<polygon fill="#000000" stroke="#000000" points="342.4453,-187.8916 335.3113,-180.0585 336.0035,-190.6307 342.4453,-187.8916"/>
</g>
<!-- [root] aws_security_group.sg&#45;&gt;[root] aws_vpc.vpc -->
<g id="edge_10" class="edge">
<title>[root] aws_security_group.sg&#45;&gt;[root] aws_vpc.vpc</title>
<path fill="none" stroke="#000000" d="M259.9631,-143.8314C271.1715,-134.9632 284.8209,-124.1637 296.9439,-114.5718"/>
<polygon fill="#000000" stroke="#000000" points="299.3737,-117.1125 305.0442,-108.1628 295.0303,-111.6229 299.3737,-117.1125"/>
</g>
<!-- [root] aws_security_group_rule.egress -->
<g id="node_8" class="node">
<title>[root] aws_security_group_rule.egress</title>
<polygon fill="none" stroke="#000000" points="206,-306 206,-321 322,-321 322,-306 206,-306"/>
<text text-anchor="start" x="208.791" y="-311.6" font-family="courier new" font-size="8.00" fill="#000000">aws_security_group_rule</text>
<polygon fill="none" stroke="#000000" points="206,-291 206,-306 322,-306 322,-291 206,-291"/>
<text text-anchor="start" x="249.5977" y="-296.6" font-family="courier new" font-size="8.00" fill="#000000">egress</text>
</g>
<!-- [root] aws_security_group_rule.egress&#45;&gt;[root] aws_security_group.sg -->
<g id="edge_11" class="edge">
<title>[root] aws_security_group_rule.egress&#45;&gt;[root] aws_security_group.sg</title>
<path fill="none" stroke="#000000" d="M260.5804,-287.7623C255.9549,-263.0928 247.6612,-218.8598 242.245,-189.9731"/>
<polygon fill="#000000" stroke="#000000" points="245.6748,-189.2733 240.3918,-180.0896 238.7947,-190.5634 245.6748,-189.2733"/>
</g>
<!-- [root] aws_security_group_rule.ssh&#45;ingress -->
<g id="node_9" class="node">
<title>[root] aws_security_group_rule.ssh&#45;ingress</title>
<polygon fill="none" stroke="#000000" points="0,-306 0,-321 116,-321 116,-306 0,-306"/>
<text text-anchor="start" x="2.791" y="-311.6" font-family="courier new" font-size="8.00" fill="#000000">aws_security_group_rule</text>
<polygon fill="none" stroke="#000000" points="0,-291 0,-306 116,-306 116,-291 0,-291"/>
<text text-anchor="start" x="31.5957" y="-296.6" font-family="courier new" font-size="8.00" fill="#000000">ssh&#45;ingress</text>
</g>
<!-- [root] aws_security_group_rule.ssh&#45;ingress&#45;&gt;[root] aws_security_group.sg -->
<g id="edge_12" class="edge">
<title>[root] aws_security_group_rule.ssh&#45;ingress&#45;&gt;[root] aws_security_group.sg</title>
<path fill="none" stroke="#000000" d="M68.6577,-287.8001C80.9364,-268.0761 102.7036,-236.6604 128,-216 143.8785,-203.0314 163.3888,-192.1333 181.493,-183.6001"/>
<polygon fill="#000000" stroke="#000000" points="183.1581,-186.6877 190.8055,-179.355 180.2545,-180.3182 183.1581,-186.6877"/>
</g>
<!-- [root] aws_subnet.main&#45;&gt;[root] aws_vpc.vpc -->
<g id="edge_13" class="edge">
<title>[root] aws_subnet.main&#45;&gt;[root] aws_vpc.vpc</title>
<path fill="none" stroke="#000000" d="M328,-143.8314C328,-136.131 328,-126.9743 328,-118.4166"/>
<polygon fill="#000000" stroke="#000000" points="331.5001,-118.4132 328,-108.4133 324.5001,-118.4133 331.5001,-118.4132"/>
</g>
<!-- [root] aws_vpc.vpc&#45;&gt;[root] provider.aws -->
<g id="edge_14" class="edge">
<title>[root] aws_vpc.vpc&#45;&gt;[root] provider.aws</title>
<path fill="none" stroke="#000000" d="M304.2798,-71.8314C292.5906,-62.8779 278.3312,-51.9558 265.7191,-42.2955"/>
<polygon fill="#000000" stroke="#000000" points="267.7797,-39.4651 257.7126,-36.1628 263.5231,-45.0222 267.7797,-39.4651"/>
</g>
<!-- [root] meta.count&#45;boundary (count boundary fixup) -->
<g id="node_13" class="node">
<title>[root] meta.count&#45;boundary (count boundary fixup)</title>
<polygon fill="none" stroke="#000000" points="282,-450 282,-465 355,-465 355,-450 282,-450"/>
<text text-anchor="start" x="308.8984" y="-455.6" font-family="courier new" font-size="8.00" fill="#000000">meta</text>
<polygon fill="none" stroke="#000000" points="282,-435 282,-450 355,-450 355,-435 282,-435"/>
<text text-anchor="start" x="284.8945" y="-440.6" font-family="courier new" font-size="8.00" fill="#000000">count&#45;boundary</text>
</g>
<!-- [root] meta.count&#45;boundary (count boundary fixup)&#45;&gt;[root] aws_network_acl.acl -->
<g id="edge_15" class="edge">
<title>[root] meta.count&#45;boundary (count boundary fixup)&#45;&gt;[root] aws_network_acl.acl</title>
<path fill="none" stroke="#000000" d="M345.2299,-431.7623C383.9206,-405.8485 454.8417,-358.3479 497.5792,-329.7237"/>
<polygon fill="#000000" stroke="#000000" points="499.6303,-332.5625 505.9912,-324.0896 495.7349,-326.7465 499.6303,-332.5625"/>
</g>
<!-- [root] meta.count&#45;boundary (count boundary fixup)&#45;&gt;[root] aws_route_table_association.public_routes -->
<g id="edge_16" class="edge">
<title>[root] meta.count&#45;boundary (count boundary fixup)&#45;&gt;[root] aws_route_table_association.public_routes</title>
<path fill="none" stroke="#000000" d="M329.3986,-431.7623C345.0198,-406.7682 373.1923,-361.6924 391.2245,-332.8409"/>
<polygon fill="#000000" stroke="#000000" points="394.362,-334.4246 396.694,-324.0896 388.426,-330.7146 394.362,-334.4246"/>
</g>
<!-- [root] meta.count&#45;boundary (count boundary fixup)&#45;&gt;[root] aws_security_group_rule.egress -->
<g id="edge_17" class="edge">
<title>[root] meta.count&#45;boundary (count boundary fixup)&#45;&gt;[root] aws_security_group_rule.egress</title>
<path fill="none" stroke="#000000" d="M314.7982,-431.7819C310.9,-411.7051 303.3921,-378.7167 292,-352 289.2405,-345.5285 285.684,-338.8869 282.0374,-332.7345"/>
<polygon fill="#000000" stroke="#000000" points="284.9572,-330.8015 276.7127,-324.1471 279.008,-334.4904 284.9572,-330.8015"/>
</g>
<!-- [root] meta.count&#45;boundary (count boundary fixup)&#45;&gt;[root] aws_security_group_rule.ssh&#45;ingress -->
<g id="edge_18" class="edge">
<title>[root] meta.count&#45;boundary (count boundary fixup)&#45;&gt;[root] aws_security_group_rule.ssh&#45;ingress</title>
<path fill="none" stroke="#000000" d="M281.1973,-444.0709C233.7786,-435.9136 154.5242,-420.3694 130,-404 103.5725,-386.3602 83.3337,-355.5907 71.1407,-333.2256"/>
<polygon fill="#000000" stroke="#000000" points="74.1595,-331.446 66.4132,-324.218 67.9613,-334.6991 74.1595,-331.446"/>
</g>
<!-- [root] output.wip -->
<g id="node_14" class="node">
<title>[root] output.wip</title>
<polygon fill="none" stroke="#000000" points="152,-378 152,-393 186,-393 186,-378 152,-378"/>
<text text-anchor="start" x="154.5977" y="-383.6" font-family="courier new" font-size="8.00" fill="#000000">output</text>
<polygon fill="none" stroke="#000000" points="152,-363 152,-378 186,-378 186,-363 152,-363"/>
<text text-anchor="start" x="161.7988" y="-368.6" font-family="courier new" font-size="8.00" fill="#000000">wip</text>
</g>
<!-- [root] meta.count&#45;boundary (count boundary fixup)&#45;&gt;[root] output.wip -->
<g id="edge_19" class="edge">
<title>[root] meta.count&#45;boundary (count boundary fixup)&#45;&gt;[root] output.wip</title>
<path fill="none" stroke="#000000" d="M281.1005,-433.0258C262.6773,-424.4632 240.0889,-413.8322 220,-404 215.2675,-401.6838 210.3079,-399.2118 205.4182,-396.748"/>
<polygon fill="#000000" stroke="#000000" points="206.6812,-393.4641 196.1794,-392.063 203.5152,-399.7073 206.6812,-393.4641"/>
</g>
<!-- [root] provider.aws (close) -->
<g id="node_15" class="node">
<title>[root] provider.aws (close)</title>
<polygon fill="none" stroke="#000000" points="234,-378 234,-393 278,-393 278,-378 234,-378"/>
<text text-anchor="start" x="236.7969" y="-383.6" font-family="courier new" font-size="8.00" fill="#000000">provider</text>
<polygon fill="none" stroke="#000000" points="234,-363 234,-378 278,-378 278,-363 234,-363"/>
<text text-anchor="start" x="248.7988" y="-368.6" font-family="courier new" font-size="8.00" fill="#000000">aws</text>
</g>
<!-- [root] provider.aws (close)&#45;&gt;[root] aws_eip.wip -->
<g id="edge_21" class="edge">
<title>[root] provider.aws (close)&#45;&gt;[root] aws_eip.wip</title>
<path fill="none" stroke="#000000" d="M232.0275,-359.8314C220.2139,-350.8779 205.8028,-339.9558 193.0565,-330.2955"/>
<polygon fill="#000000" stroke="#000000" points="195.0486,-327.4137 184.9648,-324.1628 190.8205,-332.9925 195.0486,-327.4137"/>
</g>
<!-- [root] provider.aws (close)&#45;&gt;[root] aws_network_acl.acl -->
<g id="edge_22" class="edge">
<title>[root] provider.aws (close)&#45;&gt;[root] aws_network_acl.acl</title>
<path fill="none" stroke="#000000" d="M283.0893,-372.7767C324.4794,-364.5471 406.0412,-347.3516 483.8827,-324.1549"/>
<polygon fill="#000000" stroke="#000000" points="485.2855,-327.3875 493.8467,-321.1459 483.2618,-320.6864 485.2855,-327.3875"/>
</g>
<!-- [root] provider.aws (close)&#45;&gt;[root] aws_route_table_association.public_routes -->
<g id="edge_23" class="edge">
<title>[root] provider.aws (close)&#45;&gt;[root] aws_route_table_association.public_routes</title>
<path fill="none" stroke="#000000" d="M283.1746,-365.1278C304.6973,-354.9329 335.2797,-340.4465 360.7862,-328.3645"/>
<polygon fill="#000000" stroke="#000000" points="362.3884,-331.4784 369.9275,-324.0344 359.3917,-325.1522 362.3884,-331.4784"/>
</g>
<!-- [root] provider.aws (close)&#45;&gt;[root] aws_security_group_rule.egress -->
<g id="edge_24" class="edge">
<title>[root] provider.aws (close)&#45;&gt;[root] aws_security_group_rule.egress</title>
<path fill="none" stroke="#000000" d="M258.0187,-359.8314C258.8743,-352.131 259.8917,-342.9743 260.8426,-334.4166"/>
<polygon fill="#000000" stroke="#000000" points="264.3283,-334.7386 261.9541,-324.4133 257.3711,-333.9656 264.3283,-334.7386"/>
</g>
<!-- [root] provider.aws (close)&#45;&gt;[root] aws_security_group_rule.ssh&#45;ingress -->
<g id="edge_25" class="edge">
<title>[root] provider.aws (close)&#45;&gt;[root] aws_security_group_rule.ssh&#45;ingress</title>
<path fill="none" stroke="#000000" d="M228.7943,-362.0514C222.1191,-358.479 214.9048,-354.8949 208,-352 192.7473,-345.6053 158.2119,-334.9264 126.1202,-325.4668"/>
<polygon fill="#000000" stroke="#000000" points="126.844,-322.0317 116.2631,-322.5763 124.8742,-328.7489 126.844,-322.0317"/>
</g>
<!-- [root] root -->
<g id="node_16" class="node">
<title>[root] root</title>
<polygon fill="none" stroke="#000000" points="319.3089,-540 250.6911,-540 250.6911,-504 319.3089,-504 319.3089,-540"/>
<text text-anchor="middle" x="285" y="-520.1313" font-family="courier new" font-size="8.00" fill="#000000">[root] root</text>
</g>
<!-- [root] root&#45;&gt;[root] meta.count&#45;boundary (count boundary fixup) -->
<g id="edge_26" class="edge">
<title>[root] root&#45;&gt;[root] meta.count&#45;boundary (count boundary fixup)</title>
<path fill="none" stroke="#000000" d="M293.3273,-503.8314C296.973,-495.8771 301.3309,-486.369 305.3627,-477.5723"/>
<polygon fill="#000000" stroke="#000000" points="308.5757,-478.9622 309.5606,-468.4133 302.2123,-476.0456 308.5757,-478.9622"/>
</g>
<!-- [root] root&#45;&gt;[root] provider.aws (close) -->
<g id="edge_27" class="edge">
<title>[root] root&#45;&gt;[root] provider.aws (close)</title>
<path fill="none" stroke="#000000" d="M280.7438,-503.5369C278.3808,-493.1196 275.4358,-479.853 273,-468 268.7854,-447.491 264.409,-424.27 261.1521,-406.5523"/>
<polygon fill="#000000" stroke="#000000" points="264.5204,-405.5135 259.2805,-396.3052 257.6343,-406.7714 264.5204,-405.5135"/>
</g>
<!-- [root] output.wip&#45;&gt;[root] aws_eip.wip -->
<g id="edge_20" class="edge">
<title>[root] output.wip&#45;&gt;[root] aws_eip.wip</title>
<path fill="none" stroke="#000000" d="M166.9813,-359.8314C166.1257,-352.131 165.1083,-342.9743 164.1574,-334.4166"/>
<polygon fill="#000000" stroke="#000000" points="167.6289,-333.9656 163.0459,-324.4133 160.6717,-334.7386 167.6289,-333.9656"/>
</g>
</g>
</svg>

