<?xml version="1.0" encoding="UTF-8" standalone="no"?>
<!DOCTYPE svg PUBLIC "-//W3C//DTD SVG 1.1//EN"
 "http://www.w3.org/Graphics/SVG/1.1/DTD/svg11.dtd">
<!-- Generated by graphviz version 2.40.1 (20161225.0304)
 -->
<!-- Title: %3 Pages: 1 -->
<svg width="450pt" height="332pt"
 viewBox="0.00 0.00 449.82 332.00" xmlns="http://www.w3.org/2000/svg" xmlns:xlink="http://www.w3.org/1999/xlink">
<g id="graph0" class="graph" transform="scale(1 1) rotate(0) translate(4 328)">
<title>%3</title>
<polygon fill="#ffffff" stroke="transparent" points="-4,4 -4,-328 445.8203,-328 445.8203,4 -4,4"/>
<!-- [root] aws_instance.example -->
<g id="node_0" class="node">
<title>[root] aws_instance.example</title>
<polygon fill="none" stroke="#000000" points="317.0254,-180 204.9941,-180 204.9941,-144 317.0254,-144 317.0254,-180"/>
<text text-anchor="middle" x="261.0098" y="-160.1313" font-family="courier new" font-size="8.00" fill="#000000">aws_instance.example</text>
</g>
<!-- [root] provider.aws -->
<g id="node_1" class="node">
<title>[root] provider.aws</title>
<polygon fill="none" stroke="#000000" points="248.6202,-108 175.3994,-108 175.3994,-72 248.6202,-72 248.6202,-108"/>
<text text-anchor="middle" x="212.0098" y="-88.1313" font-family="courier new" font-size="8.00" fill="#000000">provider.aws</text>
</g>
<!-- [root] aws_instance.example&#45;&gt;[root] provider.aws -->
<g id="edge1" class="edge">
<title>[root] aws_instance.example&#45;&gt;[root] provider.aws</title>
<path fill="none" stroke="#000000" d="M248.645,-143.8314C243.0589,-135.6232 236.3468,-125.7606 230.2026,-116.7323"/>
<polygon fill="#000000" stroke="#000000" points="233.0608,-114.7112 224.541,-108.4133 227.2738,-118.6496 233.0608,-114.7112"/>
</g>
<!-- [root] var.AMIS -->
<g id="node_2" class="node">
<title>[root] var.AMIS</title>
<polygon fill="none" stroke="#000000" points="355.0215,-108 266.998,-108 266.998,-72 355.0215,-72 355.0215,-108"/>
<text text-anchor="middle" x="311.0098" y="-88.1313" font-family="courier new" font-size="8.00" fill="#000000">[root] var.AMIS</text>
</g>
<!-- [root] aws_instance.example&#45;&gt;[root] var.AMIS -->
<g id="edge2" class="edge">
<title>[root] aws_instance.example&#45;&gt;[root] var.AMIS</title>
<path fill="none" stroke="#000000" d="M273.6269,-143.8314C279.327,-135.6232 286.176,-125.7606 292.4457,-116.7323"/>
<polygon fill="#000000" stroke="#000000" points="295.3936,-118.6234 298.2228,-108.4133 289.644,-114.6306 295.3936,-118.6234"/>
</g>
<!-- [root] var.AWS_ACCESS_KEY -->
<g id="node_5" class="node">
<title>[root] var.AWS_ACCESS_KEY</title>
<polygon fill="none" stroke="#000000" points="136.0293,-36 -.0098,-36 -.0098,0 136.0293,0 136.0293,-36"/>
<text text-anchor="middle" x="68.0098" y="-16.1313" font-family="courier new" font-size="8.00" fill="#000000">[root] var.AWS_ACCESS_KEY</text>
</g>
<!-- [root] provider.aws&#45;&gt;[root] var.AWS_ACCESS_KEY -->
<g id="edge5" class="edge">
<title>[root] provider.aws&#45;&gt;[root] var.AWS_ACCESS_KEY</title>
<path fill="none" stroke="#000000" d="M175.6725,-71.8314C156.6701,-62.3302 133.2339,-50.6121 113.0845,-40.5374"/>
<polygon fill="#000000" stroke="#000000" points="114.5953,-37.3797 104.0857,-36.038 111.4648,-43.6407 114.5953,-37.3797"/>
</g>
<!-- [root] var.AWS_REGION -->
<g id="node_6" class="node">
<title>[root] var.AWS_REGION</title>
<polygon fill="none" stroke="#000000" points="270.3263,-36 153.6932,-36 153.6932,0 270.3263,0 270.3263,-36"/>
<text text-anchor="middle" x="212.0098" y="-16.1313" font-family="courier new" font-size="8.00" fill="#000000">[root] var.AWS_REGION</text>
</g>
<!-- [root] provider.aws&#45;&gt;[root] var.AWS_REGION -->
<g id="edge6" class="edge">
<title>[root] provider.aws&#45;&gt;[root] var.AWS_REGION</title>
<path fill="none" stroke="#000000" d="M212.0098,-71.8314C212.0098,-64.131 212.0098,-54.9743 212.0098,-46.4166"/>
<polygon fill="#000000" stroke="#000000" points="215.5099,-46.4132 212.0098,-36.4133 208.5099,-46.4133 215.5099,-46.4132"/>
</g>
<!-- [root] var.AWS_SECRET_KEY -->
<g id="node_7" class="node">
<title>[root] var.AWS_SECRET_KEY</title>
<polygon fill="none" stroke="#000000" points="424.0293,-36 287.9902,-36 287.9902,0 424.0293,0 424.0293,-36"/>
<text text-anchor="middle" x="356.0098" y="-16.1313" font-family="courier new" font-size="8.00" fill="#000000">[root] var.AWS_SECRET_KEY</text>
</g>
<!-- [root] provider.aws&#45;&gt;[root] var.AWS_SECRET_KEY -->
<g id="edge7" class="edge">
<title>[root] provider.aws&#45;&gt;[root] var.AWS_SECRET_KEY</title>
<path fill="none" stroke="#000000" d="M248.347,-71.8314C267.3494,-62.3302 290.7856,-50.6121 310.935,-40.5374"/>
<polygon fill="#000000" stroke="#000000" points="312.5548,-43.6407 319.9338,-36.038 309.4242,-37.3797 312.5548,-43.6407"/>
</g>
<!-- [root] meta.count&#45;boundary (count boundary fixup) -->
<g id="node_3" class="node">
<title>[root] meta.count&#45;boundary (count boundary fixup)</title>
<polygon fill="none" stroke="#000000" points="278.7482,-252 27.2714,-252 27.2714,-216 278.7482,-216 278.7482,-252"/>
<text text-anchor="middle" x="153.0098" y="-232.1313" font-family="courier new" font-size="8.00" fill="#000000">[root] meta.count&#45;boundary (count boundary fixup)</text>
</g>
<!-- [root] meta.count&#45;boundary (count boundary fixup)&#45;&gt;[root] aws_instance.example -->
<g id="edge3" class="edge">
<title>[root] meta.count&#45;boundary (count boundary fixup)&#45;&gt;[root] aws_instance.example</title>
<path fill="none" stroke="#000000" d="M180.2627,-215.8314C193.9487,-206.7074 210.7012,-195.539 225.3925,-185.7449"/>
<polygon fill="#000000" stroke="#000000" points="227.3865,-188.6221 233.7655,-180.1628 223.5035,-182.7977 227.3865,-188.6221"/>
</g>
<!-- [root] provider.aws (close) -->
<g id="node_4" class="node">
<title>[root] provider.aws (close)</title>
<polygon fill="none" stroke="#000000" points="441.6314,-252 296.3882,-252 296.3882,-216 441.6314,-216 441.6314,-252"/>
<text text-anchor="middle" x="369.0098" y="-232.1313" font-family="courier new" font-size="8.00" fill="#000000">[root] provider.aws (close)</text>
</g>
<!-- [root] provider.aws (close)&#45;&gt;[root] aws_instance.example -->
<g id="edge4" class="edge">
<title>[root] provider.aws (close)&#45;&gt;[root] aws_instance.example</title>
<path fill="none" stroke="#000000" d="M341.7568,-215.8314C328.0708,-206.7074 311.3183,-195.539 296.627,-185.7449"/>
<polygon fill="#000000" stroke="#000000" points="298.516,-182.7977 288.254,-180.1628 294.6331,-188.6221 298.516,-182.7977"/>
</g>
<!-- [root] root -->
<g id="node_8" class="node">
<title>[root] root</title>
<polygon fill="none" stroke="#000000" points="295.3186,-324 226.7009,-324 226.7009,-288 295.3186,-288 295.3186,-324"/>
<text text-anchor="middle" x="261.0098" y="-304.1313" font-family="courier new" font-size="8.00" fill="#000000">[root] root</text>
</g>
<!-- [root] root&#45;&gt;[root] meta.count&#45;boundary (count boundary fixup) -->
<g id="edge8" class="edge">
<title>[root] root&#45;&gt;[root] meta.count&#45;boundary (count boundary fixup)</title>
<path fill="none" stroke="#000000" d="M233.7568,-287.8314C220.0708,-278.7074 203.3183,-267.539 188.627,-257.7449"/>
<polygon fill="#000000" stroke="#000000" points="190.516,-254.7977 180.254,-252.1628 186.6331,-260.6221 190.516,-254.7977"/>
</g>
<!-- [root] root&#45;&gt;[root] provider.aws (close) -->
<g id="edge9" class="edge">
<title>[root] root&#45;&gt;[root] provider.aws (close)</title>
<path fill="none" stroke="#000000" d="M288.2627,-287.8314C301.9487,-278.7074 318.7012,-267.539 333.3925,-257.7449"/>
<polygon fill="#000000" stroke="#000000" points="335.3865,-260.6221 341.7655,-252.1628 331.5035,-254.7977 335.3865,-260.6221"/>
</g>
</g>
</svg>
