<?xml version="1.0" encoding="UTF-8" standalone="no"?>
<!DOCTYPE svg PUBLIC "-//W3C//DTD SVG 1.1//EN"
 "http://www.w3.org/Graphics/SVG/1.1/DTD/svg11.dtd">
<!-- Generated by graphviz version 2.40.1 (20161225.0304)
 -->
<!-- Title: %3 Pages: 1 -->
<svg 
 viewBox="0.00 0.00 245.00 332.00" xmlns="http://www.w3.org/2000/svg" xmlns:xlink="http://www.w3.org/1999/xlink">
<g id="graph0" class="graph" transform="scale(1 1) rotate(0) translate(4 328)">
<title>%3</title>
<polygon fill="#ffffff" stroke="transparent" points="-4,4 -4,-328 241,-328 241,4 -4,4"/>
<!-- [root] aws_instance.example -->
<g id="node_0" class="node">
<title>[root] aws_instance.example</title>
<polygon fill="none" stroke="#000000" points="123.5,-162 123.5,-177 186.5,-177 186.5,-162 123.5,-162"/>
<text text-anchor="start" x="126.1953" y="-167.6" font-family="courier new" font-size="8.00" fill="#000000">aws_instance</text>
<polygon fill="none" stroke="#000000" points="123.5,-147 123.5,-162 186.5,-162 186.5,-147 123.5,-147"/>
<text text-anchor="start" x="138.1973" y="-152.6" font-family="courier new" font-size="8.00" fill="#000000">example</text>
</g>
<!-- [root] provider.aws -->
<g id="node_1" class="node">
<title>[root] provider.aws</title>
<polygon fill="none" stroke="#000000" points="96.5,-90 96.5,-105 140.5,-105 140.5,-90 96.5,-90"/>
<text text-anchor="start" x="99.2969" y="-95.6" font-family="courier new" font-size="8.00" fill="#000000">provider</text>
<polygon fill="none" stroke="#000000" points="96.5,-75 96.5,-90 140.5,-90 140.5,-75 96.5,-75"/>
<text text-anchor="start" x="111.2988" y="-80.6" font-family="courier new" font-size="8.00" fill="#000000">aws</text>
</g>
<!-- [root] aws_instance.example&#45;&gt;[root] provider.aws -->
<g id="edge1" class="edge">
<title>[root] aws_instance.example&#45;&gt;[root] provider.aws</title>
<path fill="none" stroke="#000000" d="M145.4157,-143.8314C141.4385,-135.8771 136.6845,-126.369 132.2861,-117.5723"/>
<polygon fill="#000000" stroke="#000000" points="135.3093,-115.7923 127.7066,-108.4133 129.0483,-118.9228 135.3093,-115.7923"/>
</g>
<!-- [root] var.AMIS -->
<g id="node_2" class="node">
<title>[root] var.AMIS</title>
<polygon fill="none" stroke="#000000" points="178.5,-90 178.5,-105 203.5,-105 203.5,-90 178.5,-90"/>
<text text-anchor="start" x="183.7988" y="-95.6" font-family="courier new" font-size="8.00" fill="#000000">var</text>
<polygon fill="none" stroke="#000000" points="178.5,-75 178.5,-90 203.5,-90 203.5,-75 178.5,-75"/>
<text text-anchor="start" x="181.3984" y="-80.6" font-family="courier new" font-size="8.00" fill="#000000">AMIS</text>
</g>
<!-- [root] aws_instance.example&#45;&gt;[root] var.AMIS -->
<g id="edge2" class="edge">
<title>[root] aws_instance.example&#45;&gt;[root] var.AMIS</title>
<path fill="none" stroke="#000000" d="M163.5843,-143.8314C167.5615,-135.8771 172.3155,-126.369 176.7139,-117.5723"/>
<polygon fill="#000000" stroke="#000000" points="179.9517,-118.9228 181.2934,-108.4133 173.6907,-115.7923 179.9517,-118.9228"/>
</g>
<!-- [root] var.AWS_ACCESS_KEY -->
<g id="node_5" class="node">
<title>[root] var.AWS_ACCESS_KEY</title>
<polygon fill="none" stroke="#000000" points=".5,-18 .5,-33 73.5,-33 73.5,-18 .5,-18"/>
<text text-anchor="start" x="29.7988" y="-23.6" font-family="courier new" font-size="8.00" fill="#000000">var</text>
<polygon fill="none" stroke="#000000" points=".5,-3 .5,-18 73.5,-18 73.5,-3 .5,-3"/>
<text text-anchor="start" x="3.3945" y="-8.6" font-family="courier new" font-size="8.00" fill="#000000">AWS_ACCESS_KEY</text>
</g>
<!-- [root] provider.aws&#45;&gt;[root] var.AWS_ACCESS_KEY -->
<g id="edge5" class="edge">
<title>[root] provider.aws&#45;&gt;[root] var.AWS_ACCESS_KEY</title>
<path fill="none" stroke="#000000" d="M97.8079,-71.8314C87.8052,-63.0485 75.645,-52.3712 64.8001,-42.8489"/>
<polygon fill="#000000" stroke="#000000" points="67.0092,-40.1308 57.1854,-36.1628 62.3906,-45.3909 67.0092,-40.1308"/>
</g>
<!-- [root] var.AWS_REGION -->
<g id="node_6" class="node">
<title>[root] var.AWS_REGION</title>
<polygon fill="none" stroke="#000000" points="91.5,-18 91.5,-33 145.5,-33 145.5,-18 91.5,-18"/>
<text text-anchor="start" x="111.2988" y="-23.6" font-family="courier new" font-size="8.00" fill="#000000">var</text>
<polygon fill="none" stroke="#000000" points="91.5,-3 91.5,-18 145.5,-18 145.5,-3 91.5,-3"/>
<text text-anchor="start" x="94.4961" y="-8.6" font-family="courier new" font-size="8.00" fill="#000000">AWS_REGION</text>
</g>
<!-- [root] provider.aws&#45;&gt;[root] var.AWS_REGION -->
<g id="edge6" class="edge">
<title>[root] provider.aws&#45;&gt;[root] var.AWS_REGION</title>
<path fill="none" stroke="#000000" d="M118.5,-71.8314C118.5,-64.131 118.5,-54.9743 118.5,-46.4166"/>
<polygon fill="#000000" stroke="#000000" points="122.0001,-46.4132 118.5,-36.4133 115.0001,-46.4133 122.0001,-46.4132"/>
</g>
<!-- [root] var.AWS_SECRET_KEY -->
<g id="node_7" class="node">
<title>[root] var.AWS_SECRET_KEY</title>
<polygon fill="none" stroke="#000000" points="164.5,-18 164.5,-33 237.5,-33 237.5,-18 164.5,-18"/>
<text text-anchor="start" x="193.7988" y="-23.6" font-family="courier new" font-size="8.00" fill="#000000">var</text>
<polygon fill="none" stroke="#000000" points="164.5,-3 164.5,-18 237.5,-18 237.5,-3 164.5,-3"/>
<text text-anchor="start" x="167.3945" y="-8.6" font-family="courier new" font-size="8.00" fill="#000000">AWS_SECRET_KEY</text>
</g>
<!-- [root] provider.aws&#45;&gt;[root] var.AWS_SECRET_KEY -->
<g id="edge7" class="edge">
<title>[root] provider.aws&#45;&gt;[root] var.AWS_SECRET_KEY</title>
<path fill="none" stroke="#000000" d="M139.1921,-71.8314C149.1948,-63.0485 161.355,-52.3712 172.1999,-42.8489"/>
<polygon fill="#000000" stroke="#000000" points="174.6094,-45.3909 179.8146,-36.1628 169.9908,-40.1308 174.6094,-45.3909"/>
</g>
<!-- [root] meta.count&#45;boundary (count boundary fixup) -->
<g id="node_3" class="node">
<title>[root] meta.count&#45;boundary (count boundary fixup)</title>
<polygon fill="none" stroke="#000000" points="77.5,-234 77.5,-249 150.5,-249 150.5,-234 77.5,-234"/>
<text text-anchor="start" x="104.3984" y="-239.6" font-family="courier new" font-size="8.00" fill="#000000">meta</text>
<polygon fill="none" stroke="#000000" points="77.5,-219 77.5,-234 150.5,-234 150.5,-219 77.5,-219"/>
<text text-anchor="start" x="80.3945" y="-224.6" font-family="courier new" font-size="8.00" fill="#000000">count&#45;boundary</text>
</g>
<!-- [root] meta.count&#45;boundary (count boundary fixup)&#45;&gt;[root] aws_instance.example -->
<g id="edge3" class="edge">
<title>[root] meta.count&#45;boundary (count boundary fixup)&#45;&gt;[root] aws_instance.example</title>
<path fill="none" stroke="#000000" d="M123.846,-215.8314C128.4237,-207.7925 133.9052,-198.1666 138.9588,-189.2918"/>
<polygon fill="#000000" stroke="#000000" points="142.1077,-190.8351 144.0147,-180.4133 136.0248,-187.3712 142.1077,-190.8351"/>
</g>
<!-- [root] provider.aws (close) -->
<g id="node_4" class="node">
<title>[root] provider.aws (close)</title>
<polygon fill="none" stroke="#000000" points="173.5,-234 173.5,-249 217.5,-249 217.5,-234 173.5,-234"/>
<text text-anchor="start" x="176.2969" y="-239.6" font-family="courier new" font-size="8.00" fill="#000000">provider</text>
<polygon fill="none" stroke="#000000" points="173.5,-219 173.5,-234 217.5,-234 217.5,-219 173.5,-219"/>
<text text-anchor="start" x="188.2988" y="-224.6" font-family="courier new" font-size="8.00" fill="#000000">aws</text>
</g>
<!-- [root] provider.aws (close)&#45;&gt;[root] aws_instance.example -->
<g id="edge4" class="edge">
<title>[root] provider.aws (close)&#45;&gt;[root] aws_instance.example</title>
<path fill="none" stroke="#000000" d="M185.154,-215.8314C180.5763,-207.7925 175.0948,-198.1666 170.0412,-189.2918"/>
<polygon fill="#000000" stroke="#000000" points="172.9752,-187.3712 164.9853,-180.4133 166.8923,-190.8351 172.9752,-187.3712"/>
</g>
<!-- [root] root -->
<g id="node_8" class="node">
<title>[root] root</title>
<polygon fill="none" stroke="#000000" points="188.8089,-324 120.1911,-324 120.1911,-288 188.8089,-288 188.8089,-324"/>
<text text-anchor="middle" x="154.5" y="-304.1313" font-family="courier new" font-size="8.00" fill="#000000">[root] root</text>
</g>
<!-- [root] root&#45;&gt;[root] meta.count&#45;boundary (count boundary fixup) -->
<g id="edge8" class="edge">
<title>[root] root&#45;&gt;[root] meta.count&#45;boundary (count boundary fixup)</title>
<path fill="none" stroke="#000000" d="M144.154,-287.8314C139.5763,-279.7925 134.0948,-270.1666 129.0412,-261.2918"/>
<polygon fill="#000000" stroke="#000000" points="131.9752,-259.3712 123.9853,-252.4133 125.8923,-262.8351 131.9752,-259.3712"/>
</g>
<!-- [root] root&#45;&gt;[root] provider.aws (close) -->
<g id="edge9" class="edge">
<title>[root] root&#45;&gt;[root] provider.aws (close)</title>
<path fill="none" stroke="#000000" d="M164.846,-287.8314C169.4237,-279.7925 174.9052,-270.1666 179.9588,-261.2918"/>
<polygon fill="#000000" stroke="#000000" points="183.1077,-262.8351 185.0147,-252.4133 177.0248,-259.3712 183.1077,-262.8351"/>
</g>
</g>
</svg>
