<?xml version="1.0" encoding="UTF-8" standalone="no"?>
<!DOCTYPE svg PUBLIC "-//W3C//DTD SVG 1.1//EN"
 "http://www.w3.org/Graphics/SVG/1.1/DTD/svg11.dtd">
<!-- Generated by graphviz version 2.40.1 (20161225.0304)
 -->
<!-- Title: %3 Pages: 1 -->
<svg width="1127pt" height="620pt"
 viewBox="0.00 0.00 1127.41 620.00" xmlns="http://www.w3.org/2000/svg" xmlns:xlink="http://www.w3.org/1999/xlink">
<g id="graph0" class="graph" transform="scale(1 1) rotate(0) translate(4 616)">
<title>%3</title>
<polygon fill="#ffffff" stroke="transparent" points="-4,4 -4,-616 1123.4097,-616 1123.4097,4 -4,4"/>
<!-- [root] aws_elb.web -->
<g id="node1" class="node">
<title>[root] aws_elb.web</title>
<polygon fill="none" stroke="#000000" points="538.7972,-396 450.3958,-396 450.3958,-360 538.7972,-360 538.7972,-396"/>
<text text-anchor="middle" x="494.5965" y="-373.8" font-family="Times,serif" font-size="14.00" fill="#000000">aws_elb.web</text>
</g>
<!-- [root] aws_instance.web -->
<g id="node2" class="node">
<title>[root] aws_instance.web</title>
<polygon fill="none" stroke="#000000" points="723.5633,-324 605.6298,-324 605.6298,-288 723.5633,-288 723.5633,-324"/>
<text text-anchor="middle" x="664.5965" y="-301.8" font-family="Times,serif" font-size="14.00" fill="#000000">aws_instance.web</text>
</g>
<!-- [root] aws_elb.web&#45;&gt;[root] aws_instance.web -->
<g id="edge1" class="edge">
<title>[root] aws_elb.web&#45;&gt;[root] aws_instance.web</title>
<path fill="none" stroke="#000000" d="M537.4947,-359.8314C560.3322,-350.159 588.5945,-338.1891 612.6652,-327.9944"/>
<polygon fill="#000000" stroke="#000000" points="614.1636,-331.1608 622.0068,-324.038 611.4336,-324.7151 614.1636,-331.1608"/>
</g>
<!-- [root] aws_security_group.elb -->
<g id="node7" class="node">
<title>[root] aws_security_group.elb</title>
<polygon fill="none" stroke="#000000" points="546.4524,-324 396.7406,-324 396.7406,-288 546.4524,-288 546.4524,-324"/>
<text text-anchor="middle" x="471.5965" y="-301.8" font-family="Times,serif" font-size="14.00" fill="#000000">aws_security_group.elb</text>
</g>
<!-- [root] aws_elb.web&#45;&gt;[root] aws_security_group.elb -->
<g id="edge2" class="edge">
<title>[root] aws_elb.web&#45;&gt;[root] aws_security_group.elb</title>
<path fill="none" stroke="#000000" d="M488.7926,-359.8314C486.3058,-352.0463 483.3434,-342.7729 480.584,-334.1347"/>
<polygon fill="#000000" stroke="#000000" points="483.8556,-332.874 477.4785,-324.4133 477.1875,-335.0041 483.8556,-332.874"/>
</g>
<!-- [root] aws_key_pair.auth -->
<g id="node4" class="node">
<title>[root] aws_key_pair.auth</title>
<polygon fill="none" stroke="#000000" points="1042.687,-252 922.506,-252 922.506,-216 1042.687,-216 1042.687,-252"/>
<text text-anchor="middle" x="982.5965" y="-229.8" font-family="Times,serif" font-size="14.00" fill="#000000">aws_key_pair.auth</text>
</g>
<!-- [root] aws_instance.web&#45;&gt;[root] aws_key_pair.auth -->
<g id="edge3" class="edge">
<title>[root] aws_instance.web&#45;&gt;[root] aws_key_pair.auth</title>
<path fill="none" stroke="#000000" d="M723.3627,-293.8489C771.4405,-283.7608 841.439,-268.7392 912.3004,-252.0255"/>
<polygon fill="#000000" stroke="#000000" points="913.3788,-255.367 922.3028,-249.6562 911.7653,-248.5554 913.3788,-255.367"/>
</g>
<!-- [root] aws_security_group.default -->
<g id="node6" class="node">
<title>[root] aws_security_group.default</title>
<polygon fill="none" stroke="#000000" points="584.2176,-252 412.9754,-252 412.9754,-216 584.2176,-216 584.2176,-252"/>
<text text-anchor="middle" x="498.5965" y="-229.8" font-family="Times,serif" font-size="14.00" fill="#000000">aws_security_group.default</text>
</g>
<!-- [root] aws_instance.web&#45;&gt;[root] aws_security_group.default -->
<g id="edge4" class="edge">
<title>[root] aws_instance.web&#45;&gt;[root] aws_security_group.default</title>
<path fill="none" stroke="#000000" d="M622.7077,-287.8314C600.5062,-278.2018 573.0544,-266.295 549.6182,-256.1299"/>
<polygon fill="#000000" stroke="#000000" points="550.7511,-252.8062 540.1841,-252.038 547.9656,-259.2282 550.7511,-252.8062"/>
</g>
<!-- [root] aws_subnet.default -->
<g id="node8" class="node">
<title>[root] aws_subnet.default</title>
<polygon fill="none" stroke="#000000" points="725.2902,-252 601.9028,-252 601.9028,-216 725.2902,-216 725.2902,-252"/>
<text text-anchor="middle" x="663.5965" y="-229.8" font-family="Times,serif" font-size="14.00" fill="#000000">aws_subnet.default</text>
</g>
<!-- [root] aws_instance.web&#45;&gt;[root] aws_subnet.default -->
<g id="edge5" class="edge">
<title>[root] aws_instance.web&#45;&gt;[root] aws_subnet.default</title>
<path fill="none" stroke="#000000" d="M664.3442,-287.8314C664.2372,-280.131 664.11,-270.9743 663.9912,-262.4166"/>
<polygon fill="#000000" stroke="#000000" points="667.4909,-262.3637 663.8523,-252.4133 660.4916,-262.4609 667.4909,-262.3637"/>
</g>
<!-- [root] var.aws_amis -->
<g id="node11" class="node">
<title>[root] var.aws_amis</title>
<ellipse fill="none" stroke="#000000" cx="823.5965" cy="-234" rx="80.1989" ry="18"/>
<text text-anchor="middle" x="823.5965" y="-229.8" font-family="Times,serif" font-size="14.00" fill="#000000">[root] var.aws_amis</text>
</g>
<!-- [root] aws_instance.web&#45;&gt;[root] var.aws_amis -->
<g id="edge6" class="edge">
<title>[root] aws_instance.web&#45;&gt;[root] var.aws_amis</title>
<path fill="none" stroke="#000000" d="M704.7189,-287.8314C727.1971,-277.6526 755.2942,-264.9294 778.5281,-254.4083"/>
<polygon fill="#000000" stroke="#000000" points="780.1614,-257.5109 787.8271,-250.1975 777.2738,-251.1343 780.1614,-257.5109"/>
</g>
<!-- [root] aws_internet_gateway.default -->
<g id="node3" class="node">
<title>[root] aws_internet_gateway.default</title>
<polygon fill="none" stroke="#000000" points="431.7297,-396 249.4633,-396 249.4633,-360 431.7297,-360 431.7297,-396"/>
<text text-anchor="middle" x="340.5965" y="-373.8" font-family="Times,serif" font-size="14.00" fill="#000000">aws_internet_gateway.default</text>
</g>
<!-- [root] aws_vpc.default -->
<g id="node9" class="node">
<title>[root] aws_vpc.default</title>
<polygon fill="none" stroke="#000000" points="552.4526,-180 444.7405,-180 444.7405,-144 552.4526,-144 552.4526,-180"/>
<text text-anchor="middle" x="498.5965" y="-157.8" font-family="Times,serif" font-size="14.00" fill="#000000">aws_vpc.default</text>
</g>
<!-- [root] aws_internet_gateway.default&#45;&gt;[root] aws_vpc.default -->
<g id="edge7" class="edge">
<title>[root] aws_internet_gateway.default&#45;&gt;[root] aws_vpc.default</title>
<path fill="none" stroke="#000000" d="M342.2193,-359.7901C345.9893,-327.3226 358.0161,-258.8337 394.5965,-216 405.8066,-202.8736 421.0102,-192.5164 436.3287,-184.5348"/>
<polygon fill="#000000" stroke="#000000" points="437.9032,-187.6609 445.332,-180.1068 434.8138,-181.3795 437.9032,-187.6609"/>
</g>
<!-- [root] provider.aws -->
<g id="node10" class="node">
<title>[root] provider.aws</title>
<polygon fill="none" stroke="#000000" points="685.5965,-108 606.9882,-90 685.5965,-72 764.2048,-90 685.5965,-108"/>
<text text-anchor="middle" x="685.5965" y="-85.8" font-family="Times,serif" font-size="14.00" fill="#000000">provider.aws</text>
</g>
<!-- [root] aws_key_pair.auth&#45;&gt;[root] provider.aws -->
<g id="edge8" class="edge">
<title>[root] aws_key_pair.auth&#45;&gt;[root] provider.aws</title>
<path fill="none" stroke="#000000" d="M969.8517,-215.8967C952.9987,-192.45 923.6775,-153.4574 908.5965,-144 881.0585,-126.7306 798.0018,-109.5336 741.4051,-99.3352"/>
<polygon fill="#000000" stroke="#000000" points="741.973,-95.8813 731.5145,-97.5754 740.7467,-102.7731 741.973,-95.8813"/>
</g>
<!-- [root] var.key_name -->
<g id="node12" class="node">
<title>[root] var.key_name</title>
<ellipse fill="none" stroke="#000000" cx="1037.5965" cy="-162" rx="81.6268" ry="18"/>
<text text-anchor="middle" x="1037.5965" y="-157.8" font-family="Times,serif" font-size="14.00" fill="#000000">[root] var.key_name</text>
</g>
<!-- [root] aws_key_pair.auth&#45;&gt;[root] var.key_name -->
<g id="edge9" class="edge">
<title>[root] aws_key_pair.auth&#45;&gt;[root] var.key_name</title>
<path fill="none" stroke="#000000" d="M996.4753,-215.8314C1002.9075,-207.411 1010.6698,-197.2495 1017.7096,-188.0338"/>
<polygon fill="#000000" stroke="#000000" points="1020.6236,-189.9848 1023.9127,-179.9134 1015.0609,-185.7355 1020.6236,-189.9848"/>
</g>
<!-- [root] var.public_key_path -->
<g id="node13" class="node">
<title>[root] var.public_key_path</title>
<ellipse fill="none" stroke="#000000" cx="795.5965" cy="-162" rx="104.3283" ry="18"/>
<text text-anchor="middle" x="795.5965" y="-157.8" font-family="Times,serif" font-size="14.00" fill="#000000">[root] var.public_key_path</text>
</g>
<!-- [root] aws_key_pair.auth&#45;&gt;[root] var.public_key_path -->
<g id="edge10" class="edge">
<title>[root] aws_key_pair.auth&#45;&gt;[root] var.public_key_path</title>
<path fill="none" stroke="#000000" d="M935.4085,-215.8314C908.6955,-205.5461 875.2352,-192.663 847.7463,-182.079"/>
<polygon fill="#000000" stroke="#000000" points="848.8828,-178.7662 838.293,-178.4393 846.3675,-185.2987 848.8828,-178.7662"/>
</g>
<!-- [root] aws_route.internet_access -->
<g id="node5" class="node">
<title>[root] aws_route.internet_access</title>
<polygon fill="none" stroke="#000000" points="455.646,-468 293.5471,-468 293.5471,-432 455.646,-432 455.646,-468"/>
<text text-anchor="middle" x="374.5965" y="-445.8" font-family="Times,serif" font-size="14.00" fill="#000000">aws_route.internet_access</text>
</g>
<!-- [root] aws_route.internet_access&#45;&gt;[root] aws_internet_gateway.default -->
<g id="edge11" class="edge">
<title>[root] aws_route.internet_access&#45;&gt;[root] aws_internet_gateway.default</title>
<path fill="none" stroke="#000000" d="M366.0169,-431.8314C362.2607,-423.8771 357.7708,-414.369 353.6168,-405.5723"/>
<polygon fill="#000000" stroke="#000000" points="356.7267,-403.9612 349.2917,-396.4133 350.3969,-406.9503 356.7267,-403.9612"/>
</g>
<!-- [root] aws_security_group.default&#45;&gt;[root] aws_vpc.default -->
<g id="edge12" class="edge">
<title>[root] aws_security_group.default&#45;&gt;[root] aws_vpc.default</title>
<path fill="none" stroke="#000000" d="M498.5965,-215.8314C498.5965,-208.131 498.5965,-198.9743 498.5965,-190.4166"/>
<polygon fill="#000000" stroke="#000000" points="502.0966,-190.4132 498.5965,-180.4133 495.0966,-190.4133 502.0966,-190.4132"/>
</g>
<!-- [root] aws_security_group.elb&#45;&gt;[root] aws_vpc.default -->
<g id="edge13" class="edge">
<title>[root] aws_security_group.elb&#45;&gt;[root] aws_vpc.default</title>
<path fill="none" stroke="#000000" d="M437.5075,-287.9135C424.3757,-279.0032 410.8068,-266.9331 403.5965,-252 396.6396,-237.5916 395.55,-229.8294 403.5965,-216 411.1159,-203.0766 423.0094,-192.9924 435.8711,-185.224"/>
<polygon fill="#000000" stroke="#000000" points="437.8497,-188.1286 444.8881,-180.2095 434.4476,-182.0109 437.8497,-188.1286"/>
</g>
<!-- [root] aws_subnet.default&#45;&gt;[root] aws_vpc.default -->
<g id="edge14" class="edge">
<title>[root] aws_subnet.default&#45;&gt;[root] aws_vpc.default</title>
<path fill="none" stroke="#000000" d="M621.96,-215.8314C599.8923,-206.2018 572.6058,-194.295 549.3108,-184.1299"/>
<polygon fill="#000000" stroke="#000000" points="550.4988,-180.8296 539.9336,-180.038 547.6991,-187.2454 550.4988,-180.8296"/>
</g>
<!-- [root] aws_vpc.default&#45;&gt;[root] provider.aws -->
<g id="edge15" class="edge">
<title>[root] aws_vpc.default&#45;&gt;[root] provider.aws</title>
<path fill="none" stroke="#000000" d="M545.7845,-143.8314C576.9885,-131.817 617.3994,-116.2577 646.7445,-104.9591"/>
<polygon fill="#000000" stroke="#000000" points="648.1683,-108.1614 656.2428,-101.302 645.653,-101.6289 648.1683,-108.1614"/>
</g>
<!-- [root] var.aws_region -->
<g id="node17" class="node">
<title>[root] var.aws_region</title>
<ellipse fill="none" stroke="#000000" cx="685.5965" cy="-18" rx="86.4791" ry="18"/>
<text text-anchor="middle" x="685.5965" y="-13.8" font-family="Times,serif" font-size="14.00" fill="#000000">[root] var.aws_region</text>
</g>
<!-- [root] provider.aws&#45;&gt;[root] var.aws_region -->
<g id="edge21" class="edge">
<title>[root] provider.aws&#45;&gt;[root] var.aws_region</title>
<path fill="none" stroke="#000000" d="M685.5965,-71.8314C685.5965,-64.131 685.5965,-54.9743 685.5965,-46.4166"/>
<polygon fill="#000000" stroke="#000000" points="689.0966,-46.4132 685.5965,-36.4133 682.0966,-46.4133 689.0966,-46.4132"/>
</g>
<!-- [root] meta.count&#45;boundary (count boundary fixup) -->
<g id="node14" class="node">
<title>[root] meta.count&#45;boundary (count boundary fixup)</title>
<ellipse fill="none" stroke="#000000" cx="191.5965" cy="-522" rx="191.6931" ry="18"/>
<text text-anchor="middle" x="191.5965" y="-517.8" font-family="Times,serif" font-size="14.00" fill="#000000">[root] meta.count&#45;boundary (count boundary fixup)</text>
</g>
<!-- [root] meta.count&#45;boundary (count boundary fixup)&#45;&gt;[root] aws_route.internet_access -->
<g id="edge16" class="edge">
<title>[root] meta.count&#45;boundary (count boundary fixup)&#45;&gt;[root] aws_route.internet_access</title>
<path fill="none" stroke="#000000" d="M236.3633,-504.3868C261.3372,-494.5611 292.6601,-482.2373 319.1719,-471.8064"/>
<polygon fill="#000000" stroke="#000000" points="320.6769,-474.9755 328.7011,-468.0572 318.114,-468.4615 320.6769,-474.9755"/>
</g>
<!-- [root] output.address -->
<g id="node15" class="node">
<title>[root] output.address</title>
<ellipse fill="none" stroke="#000000" cx="191.5965" cy="-450" rx="83.5736" ry="18"/>
<text text-anchor="middle" x="191.5965" y="-445.8" font-family="Times,serif" font-size="14.00" fill="#000000">[root] output.address</text>
</g>
<!-- [root] meta.count&#45;boundary (count boundary fixup)&#45;&gt;[root] output.address -->
<g id="edge17" class="edge">
<title>[root] meta.count&#45;boundary (count boundary fixup)&#45;&gt;[root] output.address</title>
<path fill="none" stroke="#000000" d="M191.5965,-503.8314C191.5965,-496.131 191.5965,-486.9743 191.5965,-478.4166"/>
<polygon fill="#000000" stroke="#000000" points="195.0966,-478.4132 191.5965,-468.4133 188.0966,-478.4133 195.0966,-478.4132"/>
</g>
<!-- [root] output.address&#45;&gt;[root] aws_elb.web -->
<g id="edge18" class="edge">
<title>[root] output.address&#45;&gt;[root] aws_elb.web</title>
<path fill="none" stroke="#000000" d="M252.5397,-437.5731C314.3887,-424.8195 405.8294,-405.5344 440.5965,-396 440.6948,-395.973 440.7932,-395.946 440.8916,-395.9189"/>
<polygon fill="#000000" stroke="#000000" points="441.5859,-399.3618 450.2164,-393.2165 439.6373,-392.6385 441.5859,-399.3618"/>
</g>
<!-- [root] provider.aws (close) -->
<g id="node16" class="node">
<title>[root] provider.aws (close)</title>
<ellipse fill="none" stroke="#000000" cx="505.5965" cy="-522" rx="104.3276" ry="18"/>
<text text-anchor="middle" x="505.5965" y="-517.8" font-family="Times,serif" font-size="14.00" fill="#000000">[root] provider.aws (close)</text>
</g>
<!-- [root] provider.aws (close)&#45;&gt;[root] aws_elb.web -->
<g id="edge19" class="edge">
<title>[root] provider.aws (close)&#45;&gt;[root] aws_elb.web</title>
<path fill="none" stroke="#000000" d="M504.2034,-503.7623C502.3271,-479.201 498.9696,-435.2474 496.7624,-406.3541"/>
<polygon fill="#000000" stroke="#000000" points="500.2299,-405.794 495.9784,-396.0896 493.2503,-406.3272 500.2299,-405.794"/>
</g>
<!-- [root] provider.aws (close)&#45;&gt;[root] aws_route.internet_access -->
<g id="edge20" class="edge">
<title>[root] provider.aws (close)&#45;&gt;[root] aws_route.internet_access</title>
<path fill="none" stroke="#000000" d="M474.2187,-504.7542C456.9156,-495.2441 435.2048,-483.3114 416.4713,-473.0151"/>
<polygon fill="#000000" stroke="#000000" points="417.9957,-469.8592 407.5463,-468.1098 414.6241,-475.9937 417.9957,-469.8592"/>
</g>
<!-- [root] provisioner.remote&#45;exec (close) -->
<g id="node18" class="node">
<title>[root] provisioner.remote&#45;exec (close)</title>
<ellipse fill="none" stroke="#000000" cx="666.5965" cy="-450" rx="144.3512" ry="18"/>
<text text-anchor="middle" x="666.5965" y="-445.8" font-family="Times,serif" font-size="14.00" fill="#000000">[root] provisioner.remote&#45;exec (close)</text>
</g>
<!-- [root] provisioner.remote&#45;exec (close)&#45;&gt;[root] aws_instance.web -->
<g id="edge22" class="edge">
<title>[root] provisioner.remote&#45;exec (close)&#45;&gt;[root] aws_instance.web</title>
<path fill="none" stroke="#000000" d="M666.3432,-431.7623C666.0021,-407.201 665.3916,-363.2474 664.9903,-334.3541"/>
<polygon fill="#000000" stroke="#000000" points="668.4864,-334.04 664.8478,-324.0896 661.4871,-334.1373 668.4864,-334.04"/>
</g>
<!-- [root] root -->
<g id="node19" class="node">
<title>[root] root</title>
<ellipse fill="none" stroke="#000000" cx="505.5965" cy="-594" rx="46.8976" ry="18"/>
<text text-anchor="middle" x="505.5965" y="-589.8" font-family="Times,serif" font-size="14.00" fill="#000000">[root] root</text>
</g>
<!-- [root] root&#45;&gt;[root] meta.count&#45;boundary (count boundary fixup) -->
<g id="edge23" class="edge">
<title>[root] root&#45;&gt;[root] meta.count&#45;boundary (count boundary fixup)</title>
<path fill="none" stroke="#000000" d="M465.1893,-584.7347C417.2555,-573.7435 336.1036,-555.1354 274.5975,-541.0321"/>
<polygon fill="#000000" stroke="#000000" points="275.0464,-537.5442 264.5171,-538.7206 273.4819,-544.3672 275.0464,-537.5442"/>
</g>
<!-- [root] root&#45;&gt;[root] provider.aws (close) -->
<g id="edge24" class="edge">
<title>[root] root&#45;&gt;[root] provider.aws (close)</title>
<path fill="none" stroke="#000000" d="M505.5965,-575.8314C505.5965,-568.131 505.5965,-558.9743 505.5965,-550.4166"/>
<polygon fill="#000000" stroke="#000000" points="509.0966,-550.4132 505.5965,-540.4133 502.0966,-550.4133 509.0966,-550.4132"/>
</g>
<!-- [root] root&#45;&gt;[root] provisioner.remote&#45;exec (close) -->
<g id="edge25" class="edge">
<title>[root] root&#45;&gt;[root] provisioner.remote&#45;exec (close)</title>
<path fill="none" stroke="#000000" d="M542.7224,-583.0034C566.6742,-574.4053 597.2304,-560.4427 618.5965,-540 636.6836,-522.6946 649.4315,-497.059 657.2217,-477.5694"/>
<polygon fill="#000000" stroke="#000000" points="660.5718,-478.6058 660.8455,-468.0145 654.0267,-476.1234 660.5718,-478.6058"/>
</g>
</g>
</svg>
