<?xml version="1.0" encoding="UTF-8" standalone="no"?>
<!DOCTYPE svg PUBLIC "-//W3C//DTD SVG 1.1//EN"
 "http://www.w3.org/Graphics/SVG/1.1/DTD/svg11.dtd">
<!-- Generated by graphviz version 2.40.1 (20161225.0304)
 -->
<!-- Title: %3 Pages: 1 -->
<svg width="677pt" height="843pt"
 viewBox="0.00 0.00 677.00 843.00" xmlns="http://www.w3.org/2000/svg" xmlns:xlink="http://www.w3.org/1999/xlink">
<g id="graph0" class="graph" transform="scale(1 1) rotate(0) translate(4 839)">
<title>%3</title>
<polygon fill="#ffffff" stroke="transparent" points="-4,4 -4,-839 673,-839 673,4 -4,4"/>
<g id="clust9" class="cluster">
<title>cluster[root] module.us&#45;east&#45;1.var.aws_access_key_var_</title>
</g>
<g id="clust10" class="cluster">
<title>cluster[root] module.us&#45;east&#45;1.var.aws_secret_key_var_</title>
</g>
<g id="clust11" class="cluster">
<title>cluster[root] meta.count&#45;boundary (count boundary fixup)_output_[root] module.us&#45;east&#45;1.output.wip</title>
</g>
<!-- [root] provider.aws (disabled) -->
<g id="node_13" class="node">
<title>[root] provider.aws (disabled)</title>
<polygon fill="none" stroke="#000000" points="301,-110.5 301,-125.5 345,-125.5 345,-110.5 301,-110.5"/>
<text text-anchor="start" x="303.7969" y="-116.1" font-family="courier new" font-size="8.00" fill="#000000">provider</text>
<polygon fill="none" stroke="#000000" points="301,-95.5 301,-110.5 345,-110.5 345,-95.5 301,-95.5"/>
<text text-anchor="start" x="315.7988" y="-101.1" font-family="courier new" font-size="8.00" fill="#000000">aws</text>
</g>
<!-- [root] meta.count&#45;boundary (count boundary fixup) -->
<g id="node_14" class="node">
<title>[root] meta.count&#45;boundary (count boundary fixup)</title>
<polygon fill="none" stroke="#000000" points="298,-745 298,-760 371,-760 371,-745 298,-745"/>
<text text-anchor="start" x="324.8984" y="-750.6" font-family="courier new" font-size="8.00" fill="#000000">meta</text>
<polygon fill="none" stroke="#000000" points="298,-730 298,-745 371,-745 371,-730 298,-730"/>
<text text-anchor="start" x="300.8945" y="-735.6" font-family="courier new" font-size="8.00" fill="#000000">count&#45;boundary</text>
</g>
<!-- [root] output.us&#45;east&#45;1&#45;wip -->
<g id="node_15" class="node">
<title>[root] output.us&#45;east&#45;1&#45;wip</title>
<polygon fill="none" stroke="#000000" points="417,-673 417,-688 485,-688 485,-673 417,-673"/>
<text text-anchor="start" x="436.5977" y="-678.6" font-family="courier new" font-size="8.00" fill="#000000">output</text>
<polygon fill="none" stroke="#000000" points="417,-658 417,-673 485,-673 485,-658 417,-658"/>
<text text-anchor="start" x="419.7949" y="-663.6" font-family="courier new" font-size="8.00" fill="#000000">us&#45;east&#45;1&#45;wip</text>
</g>
<!-- [root] meta.count&#45;boundary (count boundary fixup)&#45;&gt;[root] output.us&#45;east&#45;1&#45;wip -->
<g id="edge_4" class="edge">
<title>[root] meta.count&#45;boundary (count boundary fixup)&#45;&gt;[root] output.us&#45;east&#45;1&#45;wip</title>
<path fill="none" stroke="#000000" d="M363.524,-726.8314C378.4891,-717.6221 396.8386,-706.3301 412.8603,-696.4706"/>
<polygon fill="#000000" stroke="#000000" points="414.8032,-699.3847 421.4854,-691.1628 411.1345,-693.423 414.8032,-699.3847"/>
</g>
<!-- [root] module.us&#45;east&#45;1.aws_network_acl.acl -->
<g id="node_4" class="node">
<title>[root] module.us&#45;east&#45;1.aws_network_acl.acl</title>
<polygon fill="none" stroke="#000000" points="268,-522.5 268,-537.5 346,-537.5 346,-522.5 268,-522.5"/>
<text text-anchor="start" x="275.7949" y="-528.1" font-family="courier new" font-size="8.00" fill="#000000">(M) us&#45;east&#45;1</text>
<polygon fill="none" stroke="#000000" points="268,-507.5 268,-522.5 346,-522.5 346,-507.5 268,-507.5"/>
<text text-anchor="start" x="270.9941" y="-513.1" font-family="courier new" font-size="8.00" fill="#000000">aws_network_acl</text>
<polygon fill="none" stroke="#000000" points="268,-492.5 268,-507.5 346,-507.5 346,-492.5 268,-492.5"/>
<text text-anchor="start" x="299.7988" y="-498.1" font-family="courier new" font-size="8.00" fill="#000000">acl</text>
</g>
<!-- [root] meta.count&#45;boundary (count boundary fixup)&#45;&gt;[root] module.us&#45;east&#45;1.aws_network_acl.acl -->
<g id="edge_0" class="edge">
<title>[root] meta.count&#45;boundary (count boundary fixup)&#45;&gt;[root] module.us&#45;east&#45;1.aws_network_acl.acl</title>
<path fill="none" stroke="#000000" d="M327.127,-726.9816C318.3173,-702.8306 303.5221,-658.4283 298,-619 295.226,-599.1933 296.475,-593.9418 298,-574 298.6391,-565.6433 299.7845,-556.6733 301.0487,-548.329"/>
<polygon fill="#000000" stroke="#000000" points="304.5474,-548.6174 302.6845,-538.1877 297.6367,-547.5027 304.5474,-548.6174"/>
</g>
<!-- [root] module.us&#45;east&#45;1.aws_route_table_association.public_routes -->
<g id="node_6" class="node">
<title>[root] module.us&#45;east&#45;1.aws_route_table_association.public_routes</title>
<polygon fill="none" stroke="#000000" points="365,-522.5 365,-537.5 500,-537.5 500,-522.5 365,-522.5"/>
<text text-anchor="start" x="401.2949" y="-528.1" font-family="courier new" font-size="8.00" fill="#000000">(M) us&#45;east&#45;1</text>
<polygon fill="none" stroke="#000000" points="365,-507.5 365,-522.5 500,-522.5 500,-507.5 365,-507.5"/>
<text text-anchor="start" x="367.6895" y="-513.1" font-family="courier new" font-size="8.00" fill="#000000">aws_route_table_association</text>
<polygon fill="none" stroke="#000000" points="365,-492.5 365,-507.5 500,-507.5 500,-492.5 365,-492.5"/>
<text text-anchor="start" x="401.2949" y="-498.1" font-family="courier new" font-size="8.00" fill="#000000">public_routes</text>
</g>
<!-- [root] meta.count&#45;boundary (count boundary fixup)&#45;&gt;[root] module.us&#45;east&#45;1.aws_route_table_association.public_routes -->
<g id="edge_1" class="edge">
<title>[root] meta.count&#45;boundary (count boundary fixup)&#45;&gt;[root] module.us&#45;east&#45;1.aws_route_table_association.public_routes</title>
<path fill="none" stroke="#000000" d="M341.6899,-726.9915C358.2378,-688.2391 397.4139,-596.4951 418.312,-547.555"/>
<polygon fill="#000000" stroke="#000000" points="421.6493,-548.652 422.3576,-538.0808 415.2117,-545.9029 421.6493,-548.652"/>
</g>
<!-- [root] module.us&#45;east&#45;1.aws_security_group_rule.egress -->
<g id="node_8" class="node">
<title>[root] module.us&#45;east&#45;1.aws_security_group_rule.egress</title>
<polygon fill="none" stroke="#000000" points="0,-522.5 0,-537.5 116,-537.5 116,-522.5 0,-522.5"/>
<text text-anchor="start" x="26.7949" y="-528.1" font-family="courier new" font-size="8.00" fill="#000000">(M) us&#45;east&#45;1</text>
<polygon fill="none" stroke="#000000" points="0,-507.5 0,-522.5 116,-522.5 116,-507.5 0,-507.5"/>
<text text-anchor="start" x="2.791" y="-513.1" font-family="courier new" font-size="8.00" fill="#000000">aws_security_group_rule</text>
<polygon fill="none" stroke="#000000" points="0,-492.5 0,-507.5 116,-507.5 116,-492.5 0,-492.5"/>
<text text-anchor="start" x="43.5977" y="-498.1" font-family="courier new" font-size="8.00" fill="#000000">egress</text>
</g>
<!-- [root] meta.count&#45;boundary (count boundary fixup)&#45;&gt;[root] module.us&#45;east&#45;1.aws_security_group_rule.egress -->
<g id="edge_2" class="edge">
<title>[root] meta.count&#45;boundary (count boundary fixup)&#45;&gt;[root] module.us&#45;east&#45;1.aws_security_group_rule.egress</title>
<path fill="none" stroke="#000000" d="M304.8496,-726.8343C292.3109,-718.6996 277.6575,-708.7557 265,-699 199.3845,-648.4271 128.2089,-582.6919 88.7587,-545.1904"/>
<polygon fill="#000000" stroke="#000000" points="90.9549,-542.4483 81.3027,-538.0794 86.1237,-547.5139 90.9549,-542.4483"/>
</g>
<!-- [root] module.us&#45;east&#45;1.aws_security_group_rule.ssh&#45;ingress -->
<g id="node_9" class="node">
<title>[root] module.us&#45;east&#45;1.aws_security_group_rule.ssh&#45;ingress</title>
<polygon fill="none" stroke="#000000" points="134,-522.5 134,-537.5 250,-537.5 250,-522.5 134,-522.5"/>
<text text-anchor="start" x="160.7949" y="-528.1" font-family="courier new" font-size="8.00" fill="#000000">(M) us&#45;east&#45;1</text>
<polygon fill="none" stroke="#000000" points="134,-507.5 134,-522.5 250,-522.5 250,-507.5 134,-507.5"/>
<text text-anchor="start" x="136.791" y="-513.1" font-family="courier new" font-size="8.00" fill="#000000">aws_security_group_rule</text>
<polygon fill="none" stroke="#000000" points="134,-492.5 134,-507.5 250,-507.5 250,-492.5 134,-492.5"/>
<text text-anchor="start" x="165.5957" y="-498.1" font-family="courier new" font-size="8.00" fill="#000000">ssh&#45;ingress</text>
</g>
<!-- [root] meta.count&#45;boundary (count boundary fixup)&#45;&gt;[root] module.us&#45;east&#45;1.aws_security_group_rule.ssh&#45;ingress -->
<g id="edge_3" class="edge">
<title>[root] meta.count&#45;boundary (count boundary fixup)&#45;&gt;[root] module.us&#45;east&#45;1.aws_security_group_rule.ssh&#45;ingress</title>
<path fill="none" stroke="#000000" d="M319.9858,-726.9581C313.6696,-718.5981 306.2443,-708.4433 300,-699 265.6972,-647.1234 229.8358,-584.1782 209.28,-547.1186"/>
<polygon fill="#000000" stroke="#000000" points="212.2942,-545.3366 204.394,-538.2769 206.1674,-548.7223 212.2942,-545.3366"/>
</g>
<!-- [root] provider.aws (close) -->
<g id="node_27" class="node">
<title>[root] provider.aws (close)</title>
<polygon fill="none" stroke="#000000" points="312,-596.5 312,-611.5 356,-611.5 356,-596.5 312,-596.5"/>
<text text-anchor="start" x="314.7969" y="-602.1" font-family="courier new" font-size="8.00" fill="#000000">provider</text>
<polygon fill="none" stroke="#000000" points="312,-581.5 312,-596.5 356,-596.5 356,-581.5 312,-581.5"/>
<text text-anchor="start" x="326.7988" y="-587.1" font-family="courier new" font-size="8.00" fill="#000000">aws</text>
</g>
<!-- [root] module.us&#45;east&#45;1.aws_eip.wip -->
<g id="node_0" class="node">
<title>[root] module.us&#45;east&#45;1.aws_eip.wip</title>
<polygon fill="none" stroke="#000000" points="518,-522.5 518,-537.5 586,-537.5 586,-522.5 518,-522.5"/>
<text text-anchor="start" x="520.7949" y="-528.1" font-family="courier new" font-size="8.00" fill="#000000">(M) us&#45;east&#45;1</text>
<polygon fill="none" stroke="#000000" points="518,-507.5 518,-522.5 586,-522.5 586,-507.5 518,-507.5"/>
<text text-anchor="start" x="535.1973" y="-513.1" font-family="courier new" font-size="8.00" fill="#000000">aws_eip</text>
<polygon fill="none" stroke="#000000" points="518,-492.5 518,-507.5 586,-507.5 586,-492.5 518,-492.5"/>
<text text-anchor="start" x="544.7988" y="-498.1" font-family="courier new" font-size="8.00" fill="#000000">wip</text>
</g>
<!-- [root] provider.aws (close)&#45;&gt;[root] module.us&#45;east&#45;1.aws_eip.wip -->
<g id="edge_33" class="edge">
<title>[root] provider.aws (close)&#45;&gt;[root] module.us&#45;east&#45;1.aws_eip.wip</title>
<path fill="none" stroke="#000000" d="M361.1772,-588.8828C394.1772,-579.3199 451.5431,-561.689 508.4709,-537.9531"/>
<polygon fill="#000000" stroke="#000000" points="510.1252,-541.0535 517.9701,-533.9325 507.3967,-534.6072 510.1252,-541.0535"/>
</g>
<!-- [root] provider.aws (close)&#45;&gt;[root] module.us&#45;east&#45;1.aws_network_acl.acl -->
<g id="edge_34" class="edge">
<title>[root] provider.aws (close)&#45;&gt;[root] module.us&#45;east&#45;1.aws_network_acl.acl</title>
<path fill="none" stroke="#000000" d="M327.8733,-578.1198C324.8784,-569.1353 321.1853,-558.0558 317.7421,-547.7263"/>
<polygon fill="#000000" stroke="#000000" points="321.0312,-546.5255 314.5485,-538.1455 314.3904,-548.7391 321.0312,-546.5255"/>
</g>
<!-- [root] provider.aws (close)&#45;&gt;[root] module.us&#45;east&#45;1.aws_route_table_association.public_routes -->
<g id="edge_35" class="edge">
<title>[root] provider.aws (close)&#45;&gt;[root] module.us&#45;east&#45;1.aws_route_table_association.public_routes</title>
<path fill="none" stroke="#000000" d="M356.2377,-578.1198C368.2285,-568.2091 383.3036,-555.7491 396.8426,-544.5587"/>
<polygon fill="#000000" stroke="#000000" points="399.1236,-547.2141 404.6018,-538.1455 394.664,-541.8186 399.1236,-547.2141"/>
</g>
<!-- [root] provider.aws (close)&#45;&gt;[root] module.us&#45;east&#45;1.aws_security_group_rule.egress -->
<g id="edge_36" class="edge">
<title>[root] provider.aws (close)&#45;&gt;[root] module.us&#45;east&#45;1.aws_security_group_rule.egress</title>
<path fill="none" stroke="#000000" d="M306.8163,-589.3666C268.6128,-579.2389 196.667,-559.7927 126.0047,-538.2481"/>
<polygon fill="#000000" stroke="#000000" points="126.6328,-534.7799 116.0461,-535.1949 124.5809,-541.4725 126.6328,-534.7799"/>
</g>
<!-- [root] provider.aws (close)&#45;&gt;[root] module.us&#45;east&#45;1.aws_security_group_rule.ssh&#45;ingress -->
<g id="edge_37" class="edge">
<title>[root] provider.aws (close)&#45;&gt;[root] module.us&#45;east&#45;1.aws_security_group_rule.ssh&#45;ingress</title>
<path fill="none" stroke="#000000" d="M306.9566,-581.0739C288.2147,-570.383 262.7355,-555.8491 240.5271,-543.181"/>
<polygon fill="#000000" stroke="#000000" points="241.9805,-539.9806 231.5601,-538.066 238.5121,-546.061 241.9805,-539.9806"/>
</g>
<!-- [root] root -->
<g id="node_28" class="node">
<title>[root] root</title>
<polygon fill="none" stroke="#000000" points="457.3089,-835 388.6911,-835 388.6911,-799 457.3089,-799 457.3089,-835"/>
<text text-anchor="middle" x="423" y="-815.1313" font-family="courier new" font-size="8.00" fill="#000000">[root] root</text>
</g>
<!-- [root] root&#45;&gt;[root] meta.count&#45;boundary (count boundary fixup) -->
<g id="edge_38" class="edge">
<title>[root] root&#45;&gt;[root] meta.count&#45;boundary (count boundary fixup)</title>
<path fill="none" stroke="#000000" d="M400.5415,-798.8314C389.5795,-789.9632 376.2301,-779.1637 364.3735,-769.5718"/>
<polygon fill="#000000" stroke="#000000" points="366.4271,-766.7313 356.4513,-763.1628 362.0245,-772.1734 366.4271,-766.7313"/>
</g>
<!-- [root] root&#45;&gt;[root] provider.aws (close) -->
<g id="edge_39" class="edge">
<title>[root] root&#45;&gt;[root] provider.aws (close)</title>
<path fill="none" stroke="#000000" d="M442.4553,-798.7446C474.9481,-766.0278 533.2868,-696.2307 497,-647 481.9882,-626.6334 414.4452,-610.9632 371.1529,-602.7892"/>
<polygon fill="#000000" stroke="#000000" points="371.7159,-599.3341 361.248,-600.9692 370.4508,-606.2188 371.7159,-599.3341"/>
</g>
<!-- [root] var.aws_access_key -->
<g id="node_25" class="node">
<title>[root] var.aws_access_key</title>
<polygon fill="none" stroke="#000000" points="369,-34 369,-49 442,-49 442,-34 369,-34"/>
<text text-anchor="start" x="398.2988" y="-39.6" font-family="courier new" font-size="8.00" fill="#000000">var</text>
<polygon fill="none" stroke="#000000" points="369,-19 369,-34 442,-34 442,-19 369,-19"/>
<text text-anchor="start" x="371.8945" y="-24.6" font-family="courier new" font-size="8.00" fill="#000000">aws_access_key</text>
</g>
<!-- [root] var.aws_secret_key -->
<g id="node_26" class="node">
<title>[root] var.aws_secret_key</title>
<polygon fill="none" stroke="#000000" points="547,-34 547,-49 620,-49 620,-34 547,-34"/>
<text text-anchor="start" x="576.2988" y="-39.6" font-family="courier new" font-size="8.00" fill="#000000">var</text>
<polygon fill="none" stroke="#000000" points="547,-19 547,-34 620,-34 620,-19 547,-19"/>
<text text-anchor="start" x="549.8945" y="-24.6" font-family="courier new" font-size="8.00" fill="#000000">aws_secret_key</text>
</g>
<!-- [root] module.us&#45;east&#45;1.output.wip -->
<g id="node_21" class="node">
<title>[root] module.us&#45;east&#45;1.output.wip</title>
<polygon fill="none" stroke="#000000" points="481,-603.5 481,-618.5 549,-618.5 549,-603.5 481,-603.5"/>
<text text-anchor="start" x="483.7949" y="-609.1" font-family="courier new" font-size="8.00" fill="#000000">(M) us&#45;east&#45;1</text>
<polygon fill="none" stroke="#000000" points="481,-588.5 481,-603.5 549,-603.5 549,-588.5 481,-588.5"/>
<text text-anchor="start" x="500.5977" y="-594.1" font-family="courier new" font-size="8.00" fill="#000000">output</text>
<polygon fill="none" stroke="#000000" points="481,-573.5 481,-588.5 549,-588.5 549,-573.5 481,-573.5"/>
<text text-anchor="start" x="507.7988" y="-579.1" font-family="courier new" font-size="8.00" fill="#000000">wip</text>
</g>
<!-- [root] output.us&#45;east&#45;1&#45;wip&#45;&gt;[root] module.us&#45;east&#45;1.output.wip -->
<g id="edge_32" class="edge">
<title>[root] output.us&#45;east&#45;1&#45;wip&#45;&gt;[root] module.us&#45;east&#45;1.output.wip</title>
<path fill="none" stroke="#000000" d="M466.1671,-654.8706C473.1556,-646.5171 481.6416,-636.3737 489.5661,-626.9014"/>
<polygon fill="#000000" stroke="#000000" points="492.3133,-629.0723 496.0455,-619.1565 486.9444,-624.5806 492.3133,-629.0723"/>
</g>
<!-- [root] module.us&#45;east&#45;1.aws_instance.worker -->
<g id="node_1" class="node">
<title>[root] module.us&#45;east&#45;1.aws_instance.worker</title>
<polygon fill="none" stroke="#000000" points="515,-441.5 515,-456.5 583,-456.5 583,-441.5 515,-441.5"/>
<text text-anchor="start" x="517.7949" y="-447.1" font-family="courier new" font-size="8.00" fill="#000000">(M) us&#45;east&#45;1</text>
<polygon fill="none" stroke="#000000" points="515,-426.5 515,-441.5 583,-441.5 583,-426.5 515,-426.5"/>
<text text-anchor="start" x="520.1953" y="-432.1" font-family="courier new" font-size="8.00" fill="#000000">aws_instance</text>
<polygon fill="none" stroke="#000000" points="515,-411.5 515,-426.5 583,-426.5 583,-411.5 515,-411.5"/>
<text text-anchor="start" x="534.5977" y="-417.1" font-family="courier new" font-size="8.00" fill="#000000">worker</text>
</g>
<!-- [root] module.us&#45;east&#45;1.aws_eip.wip&#45;&gt;[root] module.us&#45;east&#45;1.aws_instance.worker -->
<g id="edge_5" class="edge">
<title>[root] module.us&#45;east&#45;1.aws_eip.wip&#45;&gt;[root] module.us&#45;east&#45;1.aws_instance.worker</title>
<path fill="none" stroke="#000000" d="M551.1643,-492.937C550.871,-485.0164 550.5351,-475.9488 550.2169,-467.3574"/>
<polygon fill="#000000" stroke="#000000" points="553.7094,-467.0865 549.8416,-457.2229 546.7142,-467.3457 553.7094,-467.0865"/>
</g>
<!-- [root] module.us&#45;east&#45;1.aws_key_pair.auth -->
<g id="node_3" class="node">
<title>[root] module.us&#45;east&#45;1.aws_key_pair.auth</title>
<polygon fill="none" stroke="#000000" points="515,-360.5 515,-375.5 583,-375.5 583,-360.5 515,-360.5"/>
<text text-anchor="start" x="517.7949" y="-366.1" font-family="courier new" font-size="8.00" fill="#000000">(M) us&#45;east&#45;1</text>
<polygon fill="none" stroke="#000000" points="515,-345.5 515,-360.5 583,-360.5 583,-345.5 515,-345.5"/>
<text text-anchor="start" x="520.1953" y="-351.1" font-family="courier new" font-size="8.00" fill="#000000">aws_key_pair</text>
<polygon fill="none" stroke="#000000" points="515,-330.5 515,-345.5 583,-345.5 583,-330.5 515,-330.5"/>
<text text-anchor="start" x="539.3984" y="-336.1" font-family="courier new" font-size="8.00" fill="#000000">auth</text>
</g>
<!-- [root] module.us&#45;east&#45;1.aws_instance.worker&#45;&gt;[root] module.us&#45;east&#45;1.aws_key_pair.auth -->
<g id="edge_6" class="edge">
<title>[root] module.us&#45;east&#45;1.aws_instance.worker&#45;&gt;[root] module.us&#45;east&#45;1.aws_key_pair.auth</title>
<path fill="none" stroke="#000000" d="M549,-411.937C549,-404.0164 549,-394.9488 549,-386.3574"/>
<polygon fill="#000000" stroke="#000000" points="552.5001,-386.2229 549,-376.2229 545.5001,-386.223 552.5001,-386.2229"/>
</g>
<!-- [root] module.us&#45;east&#45;1.aws_security_group.sg -->
<g id="node_7" class="node">
<title>[root] module.us&#45;east&#45;1.aws_security_group.sg</title>
<polygon fill="none" stroke="#000000" points="152,-360.5 152,-375.5 244,-375.5 244,-360.5 152,-360.5"/>
<text text-anchor="start" x="166.7949" y="-366.1" font-family="courier new" font-size="8.00" fill="#000000">(M) us&#45;east&#45;1</text>
<polygon fill="none" stroke="#000000" points="152,-345.5 152,-360.5 244,-360.5 244,-345.5 152,-345.5"/>
<text text-anchor="start" x="154.793" y="-351.1" font-family="courier new" font-size="8.00" fill="#000000">aws_security_group</text>
<polygon fill="none" stroke="#000000" points="152,-330.5 152,-345.5 244,-345.5 244,-330.5 152,-330.5"/>
<text text-anchor="start" x="193.1992" y="-336.1" font-family="courier new" font-size="8.00" fill="#000000">sg</text>
</g>
<!-- [root] module.us&#45;east&#45;1.aws_instance.worker&#45;&gt;[root] module.us&#45;east&#45;1.aws_security_group.sg -->
<g id="edge_7" class="edge">
<title>[root] module.us&#45;east&#45;1.aws_instance.worker&#45;&gt;[root] module.us&#45;east&#45;1.aws_security_group.sg</title>
<path fill="none" stroke="#000000" d="M514.7056,-426.5859C454.1591,-412.6136 327.7893,-383.4514 254.2978,-366.4918"/>
<polygon fill="#000000" stroke="#000000" points="254.8221,-363.0209 244.2911,-364.1826 253.248,-369.8416 254.8221,-363.0209"/>
</g>
<!-- [root] module.us&#45;east&#45;1.aws_subnet.main -->
<g id="node_10" class="node">
<title>[root] module.us&#45;east&#45;1.aws_subnet.main</title>
<polygon fill="none" stroke="#000000" points="429,-360.5 429,-375.5 497,-375.5 497,-360.5 429,-360.5"/>
<text text-anchor="start" x="431.7949" y="-366.1" font-family="courier new" font-size="8.00" fill="#000000">(M) us&#45;east&#45;1</text>
<polygon fill="none" stroke="#000000" points="429,-345.5 429,-360.5 497,-360.5 497,-345.5 429,-345.5"/>
<text text-anchor="start" x="438.9961" y="-351.1" font-family="courier new" font-size="8.00" fill="#000000">aws_subnet</text>
<polygon fill="none" stroke="#000000" points="429,-330.5 429,-345.5 497,-345.5 497,-330.5 429,-330.5"/>
<text text-anchor="start" x="453.3984" y="-336.1" font-family="courier new" font-size="8.00" fill="#000000">main</text>
</g>
<!-- [root] module.us&#45;east&#45;1.aws_instance.worker&#45;&gt;[root] module.us&#45;east&#45;1.aws_subnet.main -->
<g id="edge_8" class="edge">
<title>[root] module.us&#45;east&#45;1.aws_instance.worker&#45;&gt;[root] module.us&#45;east&#45;1.aws_subnet.main</title>
<path fill="none" stroke="#000000" d="M525.0442,-411.937C515.6182,-403.059 504.6621,-392.7399 494.6029,-383.2655"/>
<polygon fill="#000000" stroke="#000000" points="496.8048,-380.5314 487.1256,-376.2229 492.0054,-385.6271 496.8048,-380.5314"/>
</g>
<!-- [root] module.us&#45;east&#45;1.var.images -->
<g id="node_16" class="node">
<title>[root] module.us&#45;east&#45;1.var.images</title>
<polygon fill="none" stroke="#000000" points="601,-360.5 601,-375.5 669,-375.5 669,-360.5 601,-360.5"/>
<text text-anchor="start" x="603.7949" y="-366.1" font-family="courier new" font-size="8.00" fill="#000000">(M) us&#45;east&#45;1</text>
<polygon fill="none" stroke="#000000" points="601,-345.5 601,-360.5 669,-360.5 669,-345.5 601,-345.5"/>
<text text-anchor="start" x="627.7988" y="-351.1" font-family="courier new" font-size="8.00" fill="#000000">var</text>
<polygon fill="none" stroke="#000000" points="601,-330.5 601,-345.5 669,-345.5 669,-330.5 601,-330.5"/>
<text text-anchor="start" x="620.5977" y="-336.1" font-family="courier new" font-size="8.00" fill="#000000">images</text>
</g>
<!-- [root] module.us&#45;east&#45;1.aws_instance.worker&#45;&gt;[root] module.us&#45;east&#45;1.var.images -->
<g id="edge_9" class="edge">
<title>[root] module.us&#45;east&#45;1.aws_instance.worker&#45;&gt;[root] module.us&#45;east&#45;1.var.images</title>
<path fill="none" stroke="#000000" d="M572.9558,-411.937C582.3818,-403.059 593.3379,-392.7399 603.3971,-383.2655"/>
<polygon fill="#000000" stroke="#000000" points="605.9946,-385.6271 610.8744,-376.2229 601.1952,-380.5314 605.9946,-385.6271"/>
</g>
<!-- [root] module.us&#45;east&#45;1.aws_internet_gateway.gw -->
<g id="node_2" class="node">
<title>[root] module.us&#45;east&#45;1.aws_internet_gateway.gw</title>
<polygon fill="none" stroke="#000000" points="309,-360.5 309,-375.5 411,-375.5 411,-360.5 309,-360.5"/>
<text text-anchor="start" x="328.7949" y="-366.1" font-family="courier new" font-size="8.00" fill="#000000">(M) us&#45;east&#45;1</text>
<polygon fill="none" stroke="#000000" points="309,-345.5 309,-360.5 411,-360.5 411,-345.5 309,-345.5"/>
<text text-anchor="start" x="311.9922" y="-351.1" font-family="courier new" font-size="8.00" fill="#000000">aws_internet_gateway</text>
<polygon fill="none" stroke="#000000" points="309,-330.5 309,-345.5 411,-345.5 411,-330.5 309,-330.5"/>
<text text-anchor="start" x="355.1992" y="-336.1" font-family="courier new" font-size="8.00" fill="#000000">gw</text>
</g>
<!-- [root] module.us&#45;east&#45;1.aws_vpc.vpc -->
<g id="node_11" class="node">
<title>[root] module.us&#45;east&#45;1.aws_vpc.vpc</title>
<polygon fill="none" stroke="#000000" points="326,-279.5 326,-294.5 394,-294.5 394,-279.5 326,-279.5"/>
<text text-anchor="start" x="328.7949" y="-285.1" font-family="courier new" font-size="8.00" fill="#000000">(M) us&#45;east&#45;1</text>
<polygon fill="none" stroke="#000000" points="326,-264.5 326,-279.5 394,-279.5 394,-264.5 326,-264.5"/>
<text text-anchor="start" x="343.1973" y="-270.1" font-family="courier new" font-size="8.00" fill="#000000">aws_vpc</text>
<polygon fill="none" stroke="#000000" points="326,-249.5 326,-264.5 394,-264.5 394,-249.5 326,-249.5"/>
<text text-anchor="start" x="352.7988" y="-255.1" font-family="courier new" font-size="8.00" fill="#000000">vpc</text>
</g>
<!-- [root] module.us&#45;east&#45;1.aws_internet_gateway.gw&#45;&gt;[root] module.us&#45;east&#45;1.aws_vpc.vpc -->
<g id="edge_10" class="edge">
<title>[root] module.us&#45;east&#45;1.aws_internet_gateway.gw&#45;&gt;[root] module.us&#45;east&#45;1.aws_vpc.vpc</title>
<path fill="none" stroke="#000000" d="M360,-330.937C360,-323.0164 360,-313.9488 360,-305.3574"/>
<polygon fill="#000000" stroke="#000000" points="363.5001,-305.2229 360,-295.2229 356.5001,-305.223 363.5001,-305.2229"/>
</g>
<!-- [root] module.us&#45;east&#45;1.provider.aws -->
<g id="node_12" class="node">
<title>[root] module.us&#45;east&#45;1.provider.aws</title>
<polygon fill="none" stroke="#000000" points="437,-198.5 437,-213.5 505,-213.5 505,-198.5 437,-198.5"/>
<text text-anchor="start" x="439.7949" y="-204.1" font-family="courier new" font-size="8.00" fill="#000000">(M) us&#45;east&#45;1</text>
<polygon fill="none" stroke="#000000" points="437,-183.5 437,-198.5 505,-198.5 505,-183.5 437,-183.5"/>
<text text-anchor="start" x="451.7969" y="-189.1" font-family="courier new" font-size="8.00" fill="#000000">provider</text>
<polygon fill="none" stroke="#000000" points="437,-168.5 437,-183.5 505,-183.5 505,-168.5 437,-168.5"/>
<text text-anchor="start" x="463.7988" y="-174.1" font-family="courier new" font-size="8.00" fill="#000000">aws</text>
</g>
<!-- [root] module.us&#45;east&#45;1.aws_key_pair.auth&#45;&gt;[root] module.us&#45;east&#45;1.provider.aws -->
<g id="edge_11" class="edge">
<title>[root] module.us&#45;east&#45;1.aws_key_pair.auth&#45;&gt;[root] module.us&#45;east&#45;1.provider.aws</title>
<path fill="none" stroke="#000000" d="M538.1544,-330.9746C524.6873,-303.0044 501.6298,-255.1157 486.3515,-223.3838"/>
<polygon fill="#000000" stroke="#000000" points="489.3706,-221.5863 481.8789,-214.0946 483.0636,-224.623 489.3706,-221.5863"/>
</g>
<!-- [root] module.us&#45;east&#45;1.var.key_name -->
<g id="node_17" class="node">
<title>[root] module.us&#45;east&#45;1.var.key_name</title>
<polygon fill="none" stroke="#000000" points="544,-279.5 544,-294.5 612,-294.5 612,-279.5 544,-279.5"/>
<text text-anchor="start" x="546.7949" y="-285.1" font-family="courier new" font-size="8.00" fill="#000000">(M) us&#45;east&#45;1</text>
<polygon fill="none" stroke="#000000" points="544,-264.5 544,-279.5 612,-279.5 612,-264.5 544,-264.5"/>
<text text-anchor="start" x="570.7988" y="-270.1" font-family="courier new" font-size="8.00" fill="#000000">var</text>
<polygon fill="none" stroke="#000000" points="544,-249.5 544,-264.5 612,-264.5 612,-249.5 544,-249.5"/>
<text text-anchor="start" x="558.7969" y="-255.1" font-family="courier new" font-size="8.00" fill="#000000">key_name</text>
</g>
<!-- [root] module.us&#45;east&#45;1.aws_key_pair.auth&#45;&gt;[root] module.us&#45;east&#45;1.var.key_name -->
<g id="edge_12" class="edge">
<title>[root] module.us&#45;east&#45;1.aws_key_pair.auth&#45;&gt;[root] module.us&#45;east&#45;1.var.key_name</title>
<path fill="none" stroke="#000000" d="M557.0781,-330.937C559.9762,-322.8423 563.3032,-313.5497 566.4388,-304.7916"/>
<polygon fill="#000000" stroke="#000000" points="569.789,-305.8175 569.8646,-295.2229 563.1987,-303.458 569.789,-305.8175"/>
</g>
<!-- [root] module.us&#45;east&#45;1.aws_network_acl.acl&#45;&gt;[root] module.us&#45;east&#45;1.aws_vpc.vpc -->
<g id="edge_14" class="edge">
<title>[root] module.us&#45;east&#45;1.aws_network_acl.acl&#45;&gt;[root] module.us&#45;east&#45;1.aws_vpc.vpc</title>
<path fill="none" stroke="#000000" d="M300.2125,-492.8232C290.7265,-456.8828 277.085,-385.3464 300,-331 304.5466,-320.217 312.1597,-310.4346 320.4634,-302.0887"/>
<polygon fill="#000000" stroke="#000000" points="322.9782,-304.5287 327.8786,-295.1352 318.1899,-299.4225 322.9782,-304.5287"/>
</g>
<!-- [root] module.us&#45;east&#45;1.aws_route_table.public -->
<g id="node_5" class="node">
<title>[root] module.us&#45;east&#45;1.aws_route_table.public</title>
<polygon fill="none" stroke="#000000" points="324,-441.5 324,-456.5 402,-456.5 402,-441.5 324,-441.5"/>
<text text-anchor="start" x="331.7949" y="-447.1" font-family="courier new" font-size="8.00" fill="#000000">(M) us&#45;east&#45;1</text>
<polygon fill="none" stroke="#000000" points="324,-426.5 324,-441.5 402,-441.5 402,-426.5 324,-426.5"/>
<text text-anchor="start" x="326.9941" y="-432.1" font-family="courier new" font-size="8.00" fill="#000000">aws_route_table</text>
<polygon fill="none" stroke="#000000" points="324,-411.5 324,-426.5 402,-426.5 402,-411.5 324,-411.5"/>
<text text-anchor="start" x="348.5977" y="-417.1" font-family="courier new" font-size="8.00" fill="#000000">public</text>
</g>
<!-- [root] module.us&#45;east&#45;1.aws_route_table.public&#45;&gt;[root] module.us&#45;east&#45;1.aws_internet_gateway.gw -->
<g id="edge_15" class="edge">
<title>[root] module.us&#45;east&#45;1.aws_route_table.public&#45;&gt;[root] module.us&#45;east&#45;1.aws_internet_gateway.gw</title>
<path fill="none" stroke="#000000" d="M362.1643,-411.937C361.871,-404.0164 361.5351,-394.9488 361.2169,-386.3574"/>
<polygon fill="#000000" stroke="#000000" points="364.7094,-386.0865 360.8416,-376.2229 357.7142,-386.3457 364.7094,-386.0865"/>
</g>
<!-- [root] module.us&#45;east&#45;1.aws_route_table_association.public_routes&#45;&gt;[root] module.us&#45;east&#45;1.aws_route_table.public -->
<g id="edge_16" class="edge">
<title>[root] module.us&#45;east&#45;1.aws_route_table_association.public_routes&#45;&gt;[root] module.us&#45;east&#45;1.aws_route_table.public</title>
<path fill="none" stroke="#000000" d="M412.7797,-492.937C405.4393,-484.3201 396.9426,-474.3457 389.0698,-465.1036"/>
<polygon fill="#000000" stroke="#000000" points="391.5056,-462.5658 382.3566,-457.2229 386.1769,-467.105 391.5056,-462.5658"/>
</g>
<!-- [root] module.us&#45;east&#45;1.aws_route_table_association.public_routes&#45;&gt;[root] module.us&#45;east&#45;1.aws_subnet.main -->
<g id="edge_17" class="edge">
<title>[root] module.us&#45;east&#45;1.aws_route_table_association.public_routes&#45;&gt;[root] module.us&#45;east&#45;1.aws_subnet.main</title>
<path fill="none" stroke="#000000" d="M436.3104,-492.9746C441.6166,-465.2456 450.6689,-417.9399 456.7411,-386.208"/>
<polygon fill="#000000" stroke="#000000" points="460.2344,-386.5743 458.6763,-376.0946 453.3591,-385.2586 460.2344,-386.5743"/>
</g>
<!-- [root] module.us&#45;east&#45;1.aws_security_group.sg&#45;&gt;[root] module.us&#45;east&#45;1.aws_vpc.vpc -->
<g id="edge_18" class="edge">
<title>[root] module.us&#45;east&#45;1.aws_security_group.sg&#45;&gt;[root] module.us&#45;east&#45;1.aws_vpc.vpc</title>
<path fill="none" stroke="#000000" d="M243.126,-330.937C266.1658,-319.4171 294.0583,-305.4708 316.8158,-294.0921"/>
<polygon fill="#000000" stroke="#000000" points="318.5247,-297.1508 325.9037,-289.5481 315.3942,-290.8898 318.5247,-297.1508"/>
</g>
<!-- [root] module.us&#45;east&#45;1.aws_security_group_rule.egress&#45;&gt;[root] module.us&#45;east&#45;1.aws_security_group.sg -->
<g id="edge_19" class="edge">
<title>[root] module.us&#45;east&#45;1.aws_security_group_rule.egress&#45;&gt;[root] module.us&#45;east&#45;1.aws_security_group.sg</title>
<path fill="none" stroke="#000000" d="M77.4664,-492.9746C102.0549,-464.5222 144.4557,-415.4584 171.8519,-383.7571"/>
<polygon fill="#000000" stroke="#000000" points="174.5833,-385.9493 178.4738,-376.0946 169.2869,-381.3723 174.5833,-385.9493"/>
</g>
<!-- [root] module.us&#45;east&#45;1.aws_security_group_rule.ssh&#45;ingress&#45;&gt;[root] module.us&#45;east&#45;1.aws_security_group.sg -->
<g id="edge_20" class="edge">
<title>[root] module.us&#45;east&#45;1.aws_security_group_rule.ssh&#45;ingress&#45;&gt;[root] module.us&#45;east&#45;1.aws_security_group.sg</title>
<path fill="none" stroke="#000000" d="M192.8343,-492.9746C193.8613,-465.2456 195.6133,-417.9399 196.7886,-386.208"/>
<polygon fill="#000000" stroke="#000000" points="200.2906,-386.2174 197.1632,-376.0946 193.2953,-385.9582 200.2906,-386.2174"/>
</g>
<!-- [root] module.us&#45;east&#45;1.aws_subnet.main&#45;&gt;[root] module.us&#45;east&#45;1.aws_vpc.vpc -->
<g id="edge_21" class="edge">
<title>[root] module.us&#45;east&#45;1.aws_subnet.main&#45;&gt;[root] module.us&#45;east&#45;1.aws_vpc.vpc</title>
<path fill="none" stroke="#000000" d="M434.3088,-330.937C422.6874,-321.7979 409.1242,-311.1317 396.7898,-301.4318"/>
<polygon fill="#000000" stroke="#000000" points="398.9187,-298.6534 388.8946,-295.2229 394.5916,-304.1558 398.9187,-298.6534"/>
</g>
<!-- [root] module.us&#45;east&#45;1.var.subnet_cidr -->
<g id="node_19" class="node">
<title>[root] module.us&#45;east&#45;1.var.subnet_cidr</title>
<polygon fill="none" stroke="#000000" points="420,-279.5 420,-294.5 488,-294.5 488,-279.5 420,-279.5"/>
<text text-anchor="start" x="422.7949" y="-285.1" font-family="courier new" font-size="8.00" fill="#000000">(M) us&#45;east&#45;1</text>
<polygon fill="none" stroke="#000000" points="420,-264.5 420,-279.5 488,-279.5 488,-264.5 420,-264.5"/>
<text text-anchor="start" x="446.7988" y="-270.1" font-family="courier new" font-size="8.00" fill="#000000">var</text>
<polygon fill="none" stroke="#000000" points="420,-249.5 420,-264.5 488,-264.5 488,-249.5 420,-249.5"/>
<text text-anchor="start" x="427.5957" y="-255.1" font-family="courier new" font-size="8.00" fill="#000000">subnet_cidr</text>
</g>
<!-- [root] module.us&#45;east&#45;1.aws_subnet.main&#45;&gt;[root] module.us&#45;east&#45;1.var.subnet_cidr -->
<g id="edge_22" class="edge">
<title>[root] module.us&#45;east&#45;1.aws_subnet.main&#45;&gt;[root] module.us&#45;east&#45;1.var.subnet_cidr</title>
<path fill="none" stroke="#000000" d="M460.493,-330.937C459.6129,-323.0164 458.6054,-313.9488 457.6508,-305.3574"/>
<polygon fill="#000000" stroke="#000000" points="461.1078,-304.7752 456.5248,-295.2229 454.1506,-305.5483 461.1078,-304.7752"/>
</g>
<!-- [root] module.us&#45;east&#45;1.aws_vpc.vpc&#45;&gt;[root] module.us&#45;east&#45;1.provider.aws -->
<g id="edge_23" class="edge">
<title>[root] module.us&#45;east&#45;1.aws_vpc.vpc&#45;&gt;[root] module.us&#45;east&#45;1.provider.aws</title>
<path fill="none" stroke="#000000" d="M390.9197,-249.937C403.5629,-240.7108 418.3389,-229.9283 431.7321,-220.1549"/>
<polygon fill="#000000" stroke="#000000" points="433.8464,-222.945 439.8611,-214.2229 429.7201,-217.2904 433.8464,-222.945"/>
</g>
<!-- [root] module.us&#45;east&#45;1.var.vpc_cidr -->
<g id="node_20" class="node">
<title>[root] module.us&#45;east&#45;1.var.vpc_cidr</title>
<polygon fill="none" stroke="#000000" points="326,-198.5 326,-213.5 394,-213.5 394,-198.5 326,-198.5"/>
<text text-anchor="start" x="328.7949" y="-204.1" font-family="courier new" font-size="8.00" fill="#000000">(M) us&#45;east&#45;1</text>
<polygon fill="none" stroke="#000000" points="326,-183.5 326,-198.5 394,-198.5 394,-183.5 326,-183.5"/>
<text text-anchor="start" x="352.7988" y="-189.1" font-family="courier new" font-size="8.00" fill="#000000">var</text>
<polygon fill="none" stroke="#000000" points="326,-168.5 326,-183.5 394,-183.5 394,-168.5 326,-168.5"/>
<text text-anchor="start" x="340.7969" y="-174.1" font-family="courier new" font-size="8.00" fill="#000000">vpc_cidr</text>
</g>
<!-- [root] module.us&#45;east&#45;1.aws_vpc.vpc&#45;&gt;[root] module.us&#45;east&#45;1.var.vpc_cidr -->
<g id="edge_24" class="edge">
<title>[root] module.us&#45;east&#45;1.aws_vpc.vpc&#45;&gt;[root] module.us&#45;east&#45;1.var.vpc_cidr</title>
<path fill="none" stroke="#000000" d="M360,-249.937C360,-242.0164 360,-232.9488 360,-224.3574"/>
<polygon fill="#000000" stroke="#000000" points="363.5001,-224.2229 360,-214.2229 356.5001,-224.223 363.5001,-224.2229"/>
</g>
<!-- [root] module.us&#45;east&#45;1.provider.aws&#45;&gt;[root] provider.aws (disabled) -->
<g id="edge_29" class="edge">
<title>[root] module.us&#45;east&#45;1.provider.aws&#45;&gt;[root] provider.aws (disabled)</title>
<path fill="none" stroke="#000000" d="M436.8142,-174.5088C414.4417,-163.1781 384.7009,-147.7144 359,-133 358.9121,-132.9496 358.824,-132.8992 358.7359,-132.8486"/>
<polygon fill="#000000" stroke="#000000" points="360.7759,-129.9885 350.385,-127.9195 357.2177,-136.0168 360.7759,-129.9885"/>
</g>
<!-- [root] module.us&#45;east&#45;1.var.aws_access_key -->
<g id="node_22" class="node">
<title>[root] module.us&#45;east&#45;1.var.aws_access_key</title>
<polygon fill="none" stroke="#000000" points="369,-117.5 369,-132.5 442,-132.5 442,-117.5 369,-117.5"/>
<text text-anchor="start" x="374.2949" y="-123.1" font-family="courier new" font-size="8.00" fill="#000000">(M) us&#45;east&#45;1</text>
<polygon fill="none" stroke="#000000" points="369,-102.5 369,-117.5 442,-117.5 442,-102.5 369,-102.5"/>
<text text-anchor="start" x="398.2988" y="-108.1" font-family="courier new" font-size="8.00" fill="#000000">var</text>
<polygon fill="none" stroke="#000000" points="369,-87.5 369,-102.5 442,-102.5 442,-87.5 369,-87.5"/>
<text text-anchor="start" x="371.8945" y="-93.1" font-family="courier new" font-size="8.00" fill="#000000">aws_access_key</text>
</g>
<!-- [root] module.us&#45;east&#45;1.provider.aws&#45;&gt;[root] module.us&#45;east&#45;1.var.aws_access_key -->
<g id="edge_26" class="edge">
<title>[root] module.us&#45;east&#45;1.provider.aws&#45;&gt;[root] module.us&#45;east&#45;1.var.aws_access_key</title>
<path fill="none" stroke="#000000" d="M452.6153,-168.937C445.5942,-160.3201 437.4668,-150.3457 429.9363,-141.1036"/>
<polygon fill="#000000" stroke="#000000" points="432.5451,-138.7644 423.515,-133.2229 427.1184,-143.1862 432.5451,-138.7644"/>
</g>
<!-- [root] module.us&#45;east&#45;1.var.aws_region -->
<g id="node_23" class="node">
<title>[root] module.us&#45;east&#45;1.var.aws_region</title>
<polygon fill="none" stroke="#000000" points="460,-117.5 460,-132.5 528,-132.5 528,-117.5 460,-117.5"/>
<text text-anchor="start" x="462.7949" y="-123.1" font-family="courier new" font-size="8.00" fill="#000000">(M) us&#45;east&#45;1</text>
<polygon fill="none" stroke="#000000" points="460,-102.5 460,-117.5 528,-117.5 528,-102.5 460,-102.5"/>
<text text-anchor="start" x="486.7988" y="-108.1" font-family="courier new" font-size="8.00" fill="#000000">var</text>
<polygon fill="none" stroke="#000000" points="460,-87.5 460,-102.5 528,-102.5 528,-87.5 460,-87.5"/>
<text text-anchor="start" x="469.9961" y="-93.1" font-family="courier new" font-size="8.00" fill="#000000">aws_region</text>
</g>
<!-- [root] module.us&#45;east&#45;1.provider.aws&#45;&gt;[root] module.us&#45;east&#45;1.var.aws_region -->
<g id="edge_27" class="edge">
<title>[root] module.us&#45;east&#45;1.provider.aws&#45;&gt;[root] module.us&#45;east&#45;1.var.aws_region</title>
<path fill="none" stroke="#000000" d="M477.4068,-168.937C479.6805,-160.9294 482.2872,-151.7494 484.7505,-143.0743"/>
<polygon fill="#000000" stroke="#000000" points="488.1831,-143.7987 487.5478,-133.2229 481.4493,-141.8866 488.1831,-143.7987"/>
</g>
<!-- [root] module.us&#45;east&#45;1.var.aws_secret_key -->
<g id="node_24" class="node">
<title>[root] module.us&#45;east&#45;1.var.aws_secret_key</title>
<polygon fill="none" stroke="#000000" points="547,-117.5 547,-132.5 620,-132.5 620,-117.5 547,-117.5"/>
<text text-anchor="start" x="552.2949" y="-123.1" font-family="courier new" font-size="8.00" fill="#000000">(M) us&#45;east&#45;1</text>
<polygon fill="none" stroke="#000000" points="547,-102.5 547,-117.5 620,-117.5 620,-102.5 547,-102.5"/>
<text text-anchor="start" x="576.2988" y="-108.1" font-family="courier new" font-size="8.00" fill="#000000">var</text>
<polygon fill="none" stroke="#000000" points="547,-87.5 547,-102.5 620,-102.5 620,-87.5 547,-87.5"/>
<text text-anchor="start" x="549.8945" y="-93.1" font-family="courier new" font-size="8.00" fill="#000000">aws_secret_key</text>
</g>
<!-- [root] module.us&#45;east&#45;1.provider.aws&#45;&gt;[root] module.us&#45;east&#45;1.var.aws_secret_key -->
<g id="edge_28" class="edge">
<title>[root] module.us&#45;east&#45;1.provider.aws&#45;&gt;[root] module.us&#45;east&#45;1.var.aws_secret_key</title>
<path fill="none" stroke="#000000" d="M502.1982,-168.937C514.9554,-159.7108 529.8645,-148.9283 543.3784,-139.1549"/>
<polygon fill="#000000" stroke="#000000" points="545.5287,-141.9192 551.5806,-133.2229 541.4265,-136.2471 545.5287,-141.9192"/>
</g>
<!-- [root] module.us&#45;east&#45;1.var.public_key_path -->
<g id="node_18" class="node">
<title>[root] module.us&#45;east&#45;1.var.public_key_path</title>
<polygon fill="none" stroke="#000000" points="539,-198.5 539,-213.5 617,-213.5 617,-198.5 539,-198.5"/>
<text text-anchor="start" x="546.7949" y="-204.1" font-family="courier new" font-size="8.00" fill="#000000">(M) us&#45;east&#45;1</text>
<polygon fill="none" stroke="#000000" points="539,-183.5 539,-198.5 617,-198.5 617,-183.5 539,-183.5"/>
<text text-anchor="start" x="570.7988" y="-189.1" font-family="courier new" font-size="8.00" fill="#000000">var</text>
<polygon fill="none" stroke="#000000" points="539,-168.5 539,-183.5 617,-183.5 617,-168.5 539,-168.5"/>
<text text-anchor="start" x="541.9941" y="-174.1" font-family="courier new" font-size="8.00" fill="#000000">public_key_path</text>
</g>
<!-- [root] module.us&#45;east&#45;1.var.key_name&#45;&gt;[root] module.us&#45;east&#45;1.var.public_key_path -->
<g id="edge_41" class="edge">
<title>[root] module.us&#45;east&#45;1.var.key_name&#45;&gt;[root] module.us&#45;east&#45;1.var.public_key_path</title>
<path fill="none" stroke="#000000" stroke-dasharray="5,2" d="M578,-249.937C578,-238.796 578,-225.3856 578,-214.2229"/>
</g>
<!-- [root] module.us&#45;east&#45;1.output.wip&#45;&gt;[root] module.us&#45;east&#45;1.aws_eip.wip -->
<g id="edge_25" class="edge">
<title>[root] module.us&#45;east&#45;1.output.wip&#45;&gt;[root] module.us&#45;east&#45;1.aws_eip.wip</title>
<path fill="none" stroke="#000000" d="M525.3066,-573.937C529.0439,-565.7553 533.3403,-556.3497 537.3785,-547.5093"/>
<polygon fill="#000000" stroke="#000000" points="540.649,-548.7732 541.6204,-538.2229 534.2818,-545.8647 540.649,-548.7732"/>
</g>
<!-- [root] module.us&#45;east&#45;1.var.aws_access_key&#45;&gt;[root] var.aws_access_key -->
<g id="edge_30" class="edge">
<title>[root] module.us&#45;east&#45;1.var.aws_access_key&#45;&gt;[root] var.aws_access_key</title>
<path fill="none" stroke="#000000" d="M405,-87.9612C405,-79.9041 405,-70.7212 405,-62.2436"/>
<polygon fill="#000000" stroke="#000000" points="408.5001,-62.0204 405,-52.0205 401.5001,-62.0205 408.5001,-62.0204"/>
</g>
<!-- [root] module.us&#45;east&#45;1.var.aws_secret_key&#45;&gt;[root] var.aws_secret_key -->
<g id="edge_31" class="edge">
<title>[root] module.us&#45;east&#45;1.var.aws_secret_key&#45;&gt;[root] var.aws_secret_key</title>
<path fill="none" stroke="#000000" d="M583,-87.9612C583,-79.9041 583,-70.7212 583,-62.2436"/>
<polygon fill="#000000" stroke="#000000" points="586.5001,-62.0204 583,-52.0205 579.5001,-62.0205 586.5001,-62.0204"/>
</g>
</g>
</svg>

